<mxfile host="Electron" agent="Mozilla/5.0 (Windows NT 10.0; Win64; x64) AppleWebKit/537.36 (KHTML, like Gecko) draw.io/28.1.2 Chrome/138.0.7204.243 Electron/37.4.0 Safari/537.36" version="28.1.2">
  <diagram name="第 1 页" id="JmZDYh8FOMmMlaLbHOtE">
    <mxGraphModel dx="1072" dy="1799" grid="1" gridSize="10" guides="1" tooltips="1" connect="1" arrows="1" fold="1" page="1" pageScale="1" pageWidth="827" pageHeight="1169" math="0" shadow="0">
      <root>
        <mxCell id="0" />
        <mxCell id="1" parent="0" />
        <mxCell id="0rCMs2hzrXmPgWInfYRv-32" style="edgeStyle=orthogonalEdgeStyle;rounded=0;orthogonalLoop=1;jettySize=auto;html=1;exitX=0.497;exitY=1.018;exitDx=0;exitDy=0;entryX=0.5;entryY=0;entryDx=0;entryDy=0;exitPerimeter=0;strokeColor=default;endArrow=none;endFill=0;" parent="1" source="0rCMs2hzrXmPgWInfYRv-4" target="0rCMs2hzrXmPgWInfYRv-5" edge="1">
          <mxGeometry relative="1" as="geometry">
            <Array as="points">
              <mxPoint x="434" y="-650" />
              <mxPoint x="214" y="-650" />
              <mxPoint x="214" y="-610" />
            </Array>
          </mxGeometry>
        </mxCell>
        <mxCell id="0rCMs2hzrXmPgWInfYRv-33" style="edgeStyle=orthogonalEdgeStyle;rounded=0;orthogonalLoop=1;jettySize=auto;html=1;exitX=0.5;exitY=1;exitDx=0;exitDy=0;entryX=0.5;entryY=0;entryDx=0;entryDy=0;endArrow=none;endFill=0;" parent="1" source="0rCMs2hzrXmPgWInfYRv-1" target="0rCMs2hzrXmPgWInfYRv-17" edge="1">
          <mxGeometry relative="1" as="geometry">
            <Array as="points">
              <mxPoint x="434" y="-650" />
              <mxPoint x="560" y="-650" />
            </Array>
          </mxGeometry>
        </mxCell>
        <mxCell id="0rCMs2hzrXmPgWInfYRv-1" value="游戏主循环" style="swimlane;fontStyle=1;align=center;verticalAlign=top;childLayout=stackLayout;horizontal=1;startSize=26;horizontalStack=0;resizeParent=1;resizeParentMax=0;resizeLast=0;collapsible=1;marginBottom=0;whiteSpace=wrap;html=1;" parent="1" vertex="1">
          <mxGeometry x="354" y="-850" width="160" height="150" as="geometry">
            <mxRectangle x="270" y="150" width="100" height="30" as="alternateBounds" />
          </mxGeometry>
        </mxCell>
        <mxCell id="0rCMs2hzrXmPgWInfYRv-2" value="窗口宽高&lt;div&gt;当前所在界面&lt;/div&gt;" style="text;strokeColor=none;fillColor=none;align=left;verticalAlign=top;spacingLeft=4;spacingRight=4;overflow=hidden;rotatable=0;points=[[0,0.5],[1,0.5]];portConstraint=eastwest;whiteSpace=wrap;html=1;" parent="0rCMs2hzrXmPgWInfYRv-1" vertex="1">
          <mxGeometry y="26" width="160" height="54" as="geometry" />
        </mxCell>
        <mxCell id="0rCMs2hzrXmPgWInfYRv-3" value="" style="line;strokeWidth=1;fillColor=none;align=left;verticalAlign=middle;spacingTop=-1;spacingLeft=3;spacingRight=3;rotatable=0;labelPosition=right;points=[];portConstraint=eastwest;strokeColor=inherit;" parent="0rCMs2hzrXmPgWInfYRv-1" vertex="1">
          <mxGeometry y="80" width="160" height="20" as="geometry" />
        </mxCell>
        <mxCell id="0rCMs2hzrXmPgWInfYRv-4" value="初始化控制台&lt;div&gt;帧更新&lt;/div&gt;&lt;div&gt;界面切换&lt;/div&gt;" style="text;strokeColor=none;fillColor=none;align=left;verticalAlign=top;spacingLeft=4;spacingRight=4;overflow=hidden;rotatable=0;points=[[0,0.5],[1,0.5]];portConstraint=eastwest;whiteSpace=wrap;html=1;" parent="0rCMs2hzrXmPgWInfYRv-1" vertex="1">
          <mxGeometry y="100" width="160" height="50" as="geometry" />
        </mxCell>
        <mxCell id="0rCMs2hzrXmPgWInfYRv-5" value="游戏界面" style="swimlane;fontStyle=1;align=center;verticalAlign=top;childLayout=stackLayout;horizontal=1;startSize=26;horizontalStack=0;resizeParent=1;resizeParentMax=0;resizeLast=0;collapsible=1;marginBottom=0;whiteSpace=wrap;html=1;" parent="1" vertex="1">
          <mxGeometry x="140" y="-610" width="160" height="60" as="geometry" />
        </mxCell>
        <mxCell id="0rCMs2hzrXmPgWInfYRv-6" value="+ field: type" style="text;strokeColor=none;fillColor=none;align=left;verticalAlign=top;spacingLeft=4;spacingRight=4;overflow=hidden;rotatable=0;points=[[0,0.5],[1,0.5]];portConstraint=eastwest;whiteSpace=wrap;html=1;" parent="0rCMs2hzrXmPgWInfYRv-5" vertex="1">
          <mxGeometry y="26" width="160" height="26" as="geometry" />
        </mxCell>
        <mxCell id="0rCMs2hzrXmPgWInfYRv-7" value="" style="line;strokeWidth=1;fillColor=none;align=left;verticalAlign=middle;spacingTop=-1;spacingLeft=3;spacingRight=3;rotatable=0;labelPosition=right;points=[];portConstraint=eastwest;strokeColor=inherit;" parent="0rCMs2hzrXmPgWInfYRv-5" vertex="1">
          <mxGeometry y="52" width="160" height="8" as="geometry" />
        </mxCell>
        <mxCell id="0rCMs2hzrXmPgWInfYRv-34" style="edgeStyle=orthogonalEdgeStyle;rounded=0;orthogonalLoop=1;jettySize=auto;html=1;exitX=0.5;exitY=1;exitDx=0;exitDy=0;entryX=0.5;entryY=0;entryDx=0;entryDy=0;" parent="1" source="0rCMs2hzrXmPgWInfYRv-17" target="0rCMs2hzrXmPgWInfYRv-21" edge="1">
          <mxGeometry relative="1" as="geometry" />
        </mxCell>
        <mxCell id="0rCMs2hzrXmPgWInfYRv-17" value="开始或结束界面父类" style="swimlane;fontStyle=1;align=center;verticalAlign=top;childLayout=stackLayout;horizontal=1;startSize=26;horizontalStack=0;resizeParent=1;resizeParentMax=0;resizeLast=0;collapsible=1;marginBottom=0;whiteSpace=wrap;html=1;" parent="1" vertex="1">
          <mxGeometry x="480" y="-610" width="160" height="150" as="geometry" />
        </mxCell>
        <mxCell id="0rCMs2hzrXmPgWInfYRv-18" value="标题&lt;div&gt;选项1及其对应的场景&lt;/div&gt;&lt;div&gt;选项2及其对应的场景&lt;/div&gt;&lt;div&gt;当前选项&lt;/div&gt;" style="text;strokeColor=none;fillColor=none;align=left;verticalAlign=top;spacingLeft=4;spacingRight=4;overflow=hidden;rotatable=0;points=[[0,0.5],[1,0.5]];portConstraint=eastwest;whiteSpace=wrap;html=1;" parent="0rCMs2hzrXmPgWInfYRv-17" vertex="1">
          <mxGeometry y="26" width="160" height="64" as="geometry" />
        </mxCell>
        <mxCell id="0rCMs2hzrXmPgWInfYRv-19" value="" style="line;strokeWidth=1;fillColor=none;align=left;verticalAlign=middle;spacingTop=-1;spacingLeft=3;spacingRight=3;rotatable=0;labelPosition=right;points=[];portConstraint=eastwest;strokeColor=inherit;" parent="0rCMs2hzrXmPgWInfYRv-17" vertex="1">
          <mxGeometry y="90" width="160" height="8" as="geometry" />
        </mxCell>
        <mxCell id="0rCMs2hzrXmPgWInfYRv-20" value="更换选项&lt;br&gt;切换界面&lt;div&gt;绘制&lt;/div&gt;&lt;div&gt;&lt;br&gt;&lt;/div&gt;" style="text;strokeColor=none;fillColor=none;align=left;verticalAlign=top;spacingLeft=4;spacingRight=4;overflow=hidden;rotatable=0;points=[[0,0.5],[1,0.5]];portConstraint=eastwest;whiteSpace=wrap;html=1;" parent="0rCMs2hzrXmPgWInfYRv-17" vertex="1">
          <mxGeometry y="98" width="160" height="52" as="geometry" />
        </mxCell>
        <mxCell id="0rCMs2hzrXmPgWInfYRv-21" value="开始界面" style="swimlane;fontStyle=1;align=center;verticalAlign=top;childLayout=stackLayout;horizontal=1;startSize=26;horizontalStack=0;resizeParent=1;resizeParentMax=0;resizeLast=0;collapsible=1;marginBottom=0;whiteSpace=wrap;html=1;" parent="1" vertex="1">
          <mxGeometry x="270" y="-400" width="160" height="98" as="geometry" />
        </mxCell>
        <mxCell id="0rCMs2hzrXmPgWInfYRv-22" value="标题&lt;div&gt;选项1及其对应的场景&lt;/div&gt;&lt;div&gt;选项2及其对应的场景&lt;/div&gt;" style="text;strokeColor=none;fillColor=none;align=left;verticalAlign=top;spacingLeft=4;spacingRight=4;overflow=hidden;rotatable=0;points=[[0,0.5],[1,0.5]];portConstraint=eastwest;whiteSpace=wrap;html=1;" parent="0rCMs2hzrXmPgWInfYRv-21" vertex="1">
          <mxGeometry y="26" width="160" height="64" as="geometry" />
        </mxCell>
        <mxCell id="0rCMs2hzrXmPgWInfYRv-23" value="" style="line;strokeWidth=1;fillColor=none;align=left;verticalAlign=middle;spacingTop=-1;spacingLeft=3;spacingRight=3;rotatable=0;labelPosition=right;points=[];portConstraint=eastwest;strokeColor=inherit;" parent="0rCMs2hzrXmPgWInfYRv-21" vertex="1">
          <mxGeometry y="90" width="160" height="8" as="geometry" />
        </mxCell>
        <mxCell id="0rCMs2hzrXmPgWInfYRv-43" style="edgeStyle=orthogonalEdgeStyle;rounded=0;orthogonalLoop=1;jettySize=auto;html=1;exitX=1;exitY=0.5;exitDx=0;exitDy=0;entryX=0;entryY=0.5;entryDx=0;entryDy=0;endArrow=none;endFill=0;" parent="1" source="0rCMs2hzrXmPgWInfYRv-36" target="0rCMs2hzrXmPgWInfYRv-4" edge="1">
          <mxGeometry relative="1" as="geometry" />
        </mxCell>
        <mxCell id="0rCMs2hzrXmPgWInfYRv-36" value="&lt;p style=&quot;margin:0px;margin-top:4px;text-align:center;text-decoration:underline;&quot;&gt;&lt;b&gt;场景类型(枚举&lt;/b&gt;&lt;span style=&quot;background-color: transparent; color: light-dark(rgb(0, 0, 0), rgb(255, 255, 255)); text-align: left;&quot;&gt;)&lt;/span&gt;&lt;/p&gt;&lt;hr size=&quot;1&quot; style=&quot;border-style:solid;&quot;&gt;&lt;p style=&quot;margin:0px;margin-left:8px;&quot;&gt;开始界面&lt;/p&gt;&lt;p style=&quot;margin:0px;margin-left:8px;&quot;&gt;游戏界面&lt;/p&gt;&lt;p style=&quot;margin:0px;margin-left:8px;&quot;&gt;失败界面&lt;/p&gt;&lt;p style=&quot;margin:0px;margin-left:8px;&quot;&gt;胜利界面&lt;/p&gt;&lt;p style=&quot;margin:0px;margin-left:8px;&quot;&gt;退出游戏&lt;br&gt;&lt;br&gt;&lt;/p&gt;" style="verticalAlign=top;align=left;overflow=fill;html=1;whiteSpace=wrap;" parent="1" vertex="1">
          <mxGeometry x="130" y="-780" width="180" height="110" as="geometry" />
        </mxCell>
        <mxCell id="0rCMs2hzrXmPgWInfYRv-48" value="场景初始化和切换" style="shape=umlFrame;whiteSpace=wrap;html=1;pointerEvents=0;width=140;height=30;" parent="1" vertex="1">
          <mxGeometry x="40" y="-920" width="840" height="880" as="geometry" />
        </mxCell>
        <mxCell id="0rCMs2hzrXmPgWInfYRv-54" value="失败界面" style="swimlane;fontStyle=1;align=center;verticalAlign=top;childLayout=stackLayout;horizontal=1;startSize=26;horizontalStack=0;resizeParent=1;resizeParentMax=0;resizeLast=0;collapsible=1;marginBottom=0;whiteSpace=wrap;html=1;" parent="1" vertex="1">
          <mxGeometry x="680" y="-400" width="160" height="98" as="geometry" />
        </mxCell>
        <mxCell id="0rCMs2hzrXmPgWInfYRv-55" value="标题&lt;div&gt;选项1及其对应的场景&lt;/div&gt;&lt;div&gt;选项2及其对应的场景&lt;/div&gt;" style="text;strokeColor=none;fillColor=none;align=left;verticalAlign=top;spacingLeft=4;spacingRight=4;overflow=hidden;rotatable=0;points=[[0,0.5],[1,0.5]];portConstraint=eastwest;whiteSpace=wrap;html=1;" parent="0rCMs2hzrXmPgWInfYRv-54" vertex="1">
          <mxGeometry y="26" width="160" height="64" as="geometry" />
        </mxCell>
        <mxCell id="0rCMs2hzrXmPgWInfYRv-56" value="" style="line;strokeWidth=1;fillColor=none;align=left;verticalAlign=middle;spacingTop=-1;spacingLeft=3;spacingRight=3;rotatable=0;labelPosition=right;points=[];portConstraint=eastwest;strokeColor=inherit;" parent="0rCMs2hzrXmPgWInfYRv-54" vertex="1">
          <mxGeometry y="90" width="160" height="8" as="geometry" />
        </mxCell>
        <mxCell id="0rCMs2hzrXmPgWInfYRv-60" style="edgeStyle=orthogonalEdgeStyle;rounded=0;orthogonalLoop=1;jettySize=auto;html=1;exitX=0.5;exitY=0;exitDx=0;exitDy=0;entryX=0.496;entryY=1.014;entryDx=0;entryDy=0;entryPerimeter=0;startArrow=classic;startFill=1;endArrow=none;endFill=0;" parent="1" source="0rCMs2hzrXmPgWInfYRv-54" target="0rCMs2hzrXmPgWInfYRv-20" edge="1">
          <mxGeometry relative="1" as="geometry" />
        </mxCell>
        <mxCell id="Wj-g3I31IdHp6Aw3SEN2-5" value="基础方块" style="swimlane;fontStyle=1;align=center;verticalAlign=top;childLayout=stackLayout;horizontal=1;startSize=26;horizontalStack=0;resizeParent=1;resizeParentMax=0;resizeLast=0;collapsible=1;marginBottom=0;whiteSpace=wrap;html=1;" parent="1" vertex="1">
          <mxGeometry x="1380" y="-730" width="160" height="110" as="geometry" />
        </mxCell>
        <mxCell id="Wj-g3I31IdHp6Aw3SEN2-6" value="方块位置&lt;div&gt;方块类型&lt;/div&gt;" style="text;strokeColor=none;fillColor=none;align=left;verticalAlign=top;spacingLeft=4;spacingRight=4;overflow=hidden;rotatable=0;points=[[0,0.5],[1,0.5]];portConstraint=eastwest;whiteSpace=wrap;html=1;" parent="Wj-g3I31IdHp6Aw3SEN2-5" vertex="1">
          <mxGeometry y="26" width="160" height="44" as="geometry" />
        </mxCell>
        <mxCell id="Wj-g3I31IdHp6Aw3SEN2-7" value="" style="line;strokeWidth=1;fillColor=none;align=left;verticalAlign=middle;spacingTop=-1;spacingLeft=3;spacingRight=3;rotatable=0;labelPosition=right;points=[];portConstraint=eastwest;strokeColor=inherit;" parent="Wj-g3I31IdHp6Aw3SEN2-5" vertex="1">
          <mxGeometry y="70" width="160" height="8" as="geometry" />
        </mxCell>
        <mxCell id="Wj-g3I31IdHp6Aw3SEN2-8" value="绘制" style="text;strokeColor=none;fillColor=none;align=left;verticalAlign=top;spacingLeft=4;spacingRight=4;overflow=hidden;rotatable=0;points=[[0,0.5],[1,0.5]];portConstraint=eastwest;whiteSpace=wrap;html=1;" parent="Wj-g3I31IdHp6Aw3SEN2-5" vertex="1">
          <mxGeometry y="78" width="160" height="32" as="geometry" />
        </mxCell>
        <mxCell id="Wj-g3I31IdHp6Aw3SEN2-14" value="位置（结构体）" style="swimlane;fontStyle=1;align=center;verticalAlign=top;childLayout=stackLayout;horizontal=1;startSize=26;horizontalStack=0;resizeParent=1;resizeParentMax=0;resizeLast=0;collapsible=1;marginBottom=0;whiteSpace=wrap;html=1;" parent="1" vertex="1">
          <mxGeometry x="1030" y="-670" width="160" height="90" as="geometry" />
        </mxCell>
        <mxCell id="Wj-g3I31IdHp6Aw3SEN2-15" value="x，y" style="text;strokeColor=none;fillColor=none;align=left;verticalAlign=top;spacingLeft=4;spacingRight=4;overflow=hidden;rotatable=0;points=[[0,0.5],[1,0.5]];portConstraint=eastwest;whiteSpace=wrap;html=1;" parent="Wj-g3I31IdHp6Aw3SEN2-14" vertex="1">
          <mxGeometry y="26" width="160" height="26" as="geometry" />
        </mxCell>
        <mxCell id="Wj-g3I31IdHp6Aw3SEN2-16" value="" style="line;strokeWidth=1;fillColor=none;align=left;verticalAlign=middle;spacingTop=-1;spacingLeft=3;spacingRight=3;rotatable=0;labelPosition=right;points=[];portConstraint=eastwest;strokeColor=inherit;" parent="Wj-g3I31IdHp6Aw3SEN2-14" vertex="1">
          <mxGeometry y="52" width="160" height="8" as="geometry" />
        </mxCell>
        <mxCell id="Wj-g3I31IdHp6Aw3SEN2-17" value="比较两个位置是否重合" style="text;strokeColor=none;fillColor=none;align=left;verticalAlign=top;spacingLeft=4;spacingRight=4;overflow=hidden;rotatable=0;points=[[0,0.5],[1,0.5]];portConstraint=eastwest;whiteSpace=wrap;html=1;" parent="Wj-g3I31IdHp6Aw3SEN2-14" vertex="1">
          <mxGeometry y="60" width="160" height="30" as="geometry" />
        </mxCell>
        <mxCell id="Wj-g3I31IdHp6Aw3SEN2-18" style="edgeStyle=orthogonalEdgeStyle;rounded=0;orthogonalLoop=1;jettySize=auto;html=1;exitX=1;exitY=0.5;exitDx=0;exitDy=0;entryX=0;entryY=0.5;entryDx=0;entryDy=0;endArrow=none;endFill=0;" parent="1" source="Wj-g3I31IdHp6Aw3SEN2-15" target="Wj-g3I31IdHp6Aw3SEN2-6" edge="1">
          <mxGeometry relative="1" as="geometry" />
        </mxCell>
        <mxCell id="Wj-g3I31IdHp6Aw3SEN2-20" style="edgeStyle=orthogonalEdgeStyle;rounded=0;orthogonalLoop=1;jettySize=auto;html=1;exitX=1;exitY=0.5;exitDx=0;exitDy=0;entryX=0;entryY=0.5;entryDx=0;entryDy=0;endArrow=none;endFill=0;" parent="1" source="Wj-g3I31IdHp6Aw3SEN2-19" target="Wj-g3I31IdHp6Aw3SEN2-6" edge="1">
          <mxGeometry relative="1" as="geometry" />
        </mxCell>
        <mxCell id="Wj-g3I31IdHp6Aw3SEN2-19" value="&lt;p style=&quot;margin:0px;margin-top:4px;text-align:center;text-decoration:underline;&quot;&gt;&lt;b&gt;方块类型（枚举）&lt;span style=&quot;white-space: pre;&quot;&gt;&#x9;&lt;/span&gt;&lt;span style=&quot;white-space: pre;&quot;&gt;&#x9;&lt;/span&gt;&lt;span style=&quot;white-space: pre;&quot;&gt;&#x9;&lt;/span&gt;&lt;span style=&quot;white-space: pre;&quot;&gt;&#x9;&lt;/span&gt;&lt;/b&gt;&lt;/p&gt;&lt;hr size=&quot;1&quot; style=&quot;border-style:solid;&quot;&gt;&lt;p style=&quot;margin:0px;margin-left:8px;&quot;&gt;红墙&lt;/p&gt;&lt;p style=&quot;margin:0px;margin-left:8px;&quot;&gt;沉积的方块&lt;/p&gt;&lt;p style=&quot;margin:0px;margin-left:8px;&quot;&gt;&lt;span style=&quot;text-align: center;&quot;&gt;I,O,_Z,Z,J,L,T&lt;/span&gt;&lt;/p&gt;&lt;p style=&quot;margin:0px;margin-left:8px;&quot;&gt;&lt;br&gt;&lt;/p&gt;&lt;p style=&quot;margin:0px;margin-left:8px;&quot;&gt;&lt;br&gt;&lt;/p&gt;" style="verticalAlign=top;align=left;overflow=fill;html=1;whiteSpace=wrap;" parent="1" vertex="1">
          <mxGeometry x="1030" y="-810" width="190" height="110" as="geometry" />
        </mxCell>
        <mxCell id="Wj-g3I31IdHp6Aw3SEN2-21" value="不变的红墙" style="swimlane;fontStyle=1;align=center;verticalAlign=top;childLayout=stackLayout;horizontal=1;startSize=26;horizontalStack=0;resizeParent=1;resizeParentMax=0;resizeLast=0;collapsible=1;marginBottom=0;whiteSpace=wrap;html=1;" parent="1" vertex="1">
          <mxGeometry x="1070" y="-506" width="160" height="198" as="geometry" />
        </mxCell>
        <mxCell id="Wj-g3I31IdHp6Aw3SEN2-22" value="红墙高度&lt;div&gt;红墙宽度&lt;/div&gt;&lt;div&gt;红墙方块&lt;/div&gt;" style="text;strokeColor=none;fillColor=none;align=left;verticalAlign=top;spacingLeft=4;spacingRight=4;overflow=hidden;rotatable=0;points=[[0,0.5],[1,0.5]];portConstraint=eastwest;whiteSpace=wrap;html=1;" parent="Wj-g3I31IdHp6Aw3SEN2-21" vertex="1">
          <mxGeometry y="26" width="160" height="64" as="geometry" />
        </mxCell>
        <mxCell id="Wj-g3I31IdHp6Aw3SEN2-23" value="" style="line;strokeWidth=1;fillColor=none;align=left;verticalAlign=middle;spacingTop=-1;spacingLeft=3;spacingRight=3;rotatable=0;labelPosition=right;points=[];portConstraint=eastwest;strokeColor=inherit;" parent="Wj-g3I31IdHp6Aw3SEN2-21" vertex="1">
          <mxGeometry y="90" width="160" height="8" as="geometry" />
        </mxCell>
        <mxCell id="Wj-g3I31IdHp6Aw3SEN2-24" value="绘制红墙" style="text;strokeColor=none;fillColor=none;align=left;verticalAlign=top;spacingLeft=4;spacingRight=4;overflow=hidden;rotatable=0;points=[[0,0.5],[1,0.5]];portConstraint=eastwest;whiteSpace=wrap;html=1;" parent="Wj-g3I31IdHp6Aw3SEN2-21" vertex="1">
          <mxGeometry y="98" width="160" height="100" as="geometry" />
        </mxCell>
        <mxCell id="Wj-g3I31IdHp6Aw3SEN2-38" style="edgeStyle=orthogonalEdgeStyle;rounded=0;orthogonalLoop=1;jettySize=auto;html=1;exitX=0.5;exitY=0;exitDx=0;exitDy=0;entryX=0.5;entryY=1;entryDx=0;entryDy=0;startArrow=diamond;startFill=0;endArrow=none;endFill=0;" parent="1" source="Wj-g3I31IdHp6Aw3SEN2-25" target="Wj-g3I31IdHp6Aw3SEN2-5" edge="1">
          <mxGeometry relative="1" as="geometry" />
        </mxCell>
        <mxCell id="Wj-g3I31IdHp6Aw3SEN2-25" value="沉积的砖块" style="swimlane;fontStyle=1;align=center;verticalAlign=top;childLayout=stackLayout;horizontal=1;startSize=26;horizontalStack=0;resizeParent=1;resizeParentMax=0;resizeLast=0;collapsible=1;marginBottom=0;whiteSpace=wrap;html=1;" parent="1" vertex="1">
          <mxGeometry x="1380" y="-506" width="160" height="140" as="geometry" />
        </mxCell>
        <mxCell id="Wj-g3I31IdHp6Aw3SEN2-26" value="所有沉积的砖块" style="text;strokeColor=none;fillColor=none;align=left;verticalAlign=top;spacingLeft=4;spacingRight=4;overflow=hidden;rotatable=0;points=[[0,0.5],[1,0.5]];portConstraint=eastwest;whiteSpace=wrap;html=1;" parent="Wj-g3I31IdHp6Aw3SEN2-25" vertex="1">
          <mxGeometry y="26" width="160" height="26" as="geometry" />
        </mxCell>
        <mxCell id="Wj-g3I31IdHp6Aw3SEN2-27" value="" style="line;strokeWidth=1;fillColor=none;align=left;verticalAlign=middle;spacingTop=-1;spacingLeft=3;spacingRight=3;rotatable=0;labelPosition=right;points=[];portConstraint=eastwest;strokeColor=inherit;" parent="Wj-g3I31IdHp6Aw3SEN2-25" vertex="1">
          <mxGeometry y="52" width="160" height="8" as="geometry" />
        </mxCell>
        <mxCell id="Wj-g3I31IdHp6Aw3SEN2-28" value="绘制&lt;div&gt;增加沉积的砖块&lt;/div&gt;&lt;div&gt;清除满行&lt;/div&gt;&lt;div&gt;游戏是否结束&lt;/div&gt;" style="text;strokeColor=none;fillColor=none;align=left;verticalAlign=top;spacingLeft=4;spacingRight=4;overflow=hidden;rotatable=0;points=[[0,0.5],[1,0.5]];portConstraint=eastwest;whiteSpace=wrap;html=1;" parent="Wj-g3I31IdHp6Aw3SEN2-25" vertex="1">
          <mxGeometry y="60" width="160" height="80" as="geometry" />
        </mxCell>
        <mxCell id="Wj-g3I31IdHp6Aw3SEN2-29" value="搬砖工人" style="swimlane;fontStyle=1;align=center;verticalAlign=top;childLayout=stackLayout;horizontal=1;startSize=26;horizontalStack=0;resizeParent=1;resizeParentMax=0;resizeLast=0;collapsible=1;marginBottom=0;whiteSpace=wrap;html=1;" parent="1" vertex="1">
          <mxGeometry x="1850" y="-403.55999999999995" width="160" height="170" as="geometry" />
        </mxCell>
        <mxCell id="Wj-g3I31IdHp6Aw3SEN2-30" value="当前方块" style="text;strokeColor=none;fillColor=none;align=left;verticalAlign=top;spacingLeft=4;spacingRight=4;overflow=hidden;rotatable=0;points=[[0,0.5],[1,0.5]];portConstraint=eastwest;whiteSpace=wrap;html=1;" parent="Wj-g3I31IdHp6Aw3SEN2-29" vertex="1">
          <mxGeometry y="26" width="160" height="26" as="geometry" />
        </mxCell>
        <mxCell id="Wj-g3I31IdHp6Aw3SEN2-31" value="" style="line;strokeWidth=1;fillColor=none;align=left;verticalAlign=middle;spacingTop=-1;spacingLeft=3;spacingRight=3;rotatable=0;labelPosition=right;points=[];portConstraint=eastwest;strokeColor=inherit;" parent="Wj-g3I31IdHp6Aw3SEN2-29" vertex="1">
          <mxGeometry y="52" width="160" height="8" as="geometry" />
        </mxCell>
        <mxCell id="Wj-g3I31IdHp6Aw3SEN2-32" value="获取新的随机方块&lt;div&gt;向下移动方块&lt;/div&gt;&lt;div&gt;旋转方块&lt;/div&gt;&lt;div&gt;左右移动方块&lt;/div&gt;&lt;div&gt;是否沉积方块&lt;/div&gt;&lt;div&gt;是否左右移动&lt;/div&gt;&lt;div&gt;是否需要沉积&lt;/div&gt;" style="text;strokeColor=none;fillColor=none;align=left;verticalAlign=top;spacingLeft=4;spacingRight=4;overflow=hidden;rotatable=0;points=[[0,0.5],[1,0.5]];portConstraint=eastwest;whiteSpace=wrap;html=1;" parent="Wj-g3I31IdHp6Aw3SEN2-29" vertex="1">
          <mxGeometry y="60" width="160" height="110" as="geometry" />
        </mxCell>
        <mxCell id="Wj-g3I31IdHp6Aw3SEN2-35" style="edgeStyle=orthogonalEdgeStyle;rounded=0;orthogonalLoop=1;jettySize=auto;html=1;exitX=0.5;exitY=0;exitDx=0;exitDy=0;entryX=0.49;entryY=1.031;entryDx=0;entryDy=0;entryPerimeter=0;endArrow=none;endFill=0;startArrow=diamond;startFill=0;startSize=6;" parent="1" source="Wj-g3I31IdHp6Aw3SEN2-21" target="Wj-g3I31IdHp6Aw3SEN2-8" edge="1">
          <mxGeometry relative="1" as="geometry" />
        </mxCell>
        <mxCell id="Wj-g3I31IdHp6Aw3SEN2-39" value="" style="shape=image;verticalLabelPosition=bottom;labelBackgroundColor=default;verticalAlign=top;aspect=fixed;imageAspect=0;image=data:image/png,iVBORw0KGgoAAAANSUhEUgAAAd8AAAKpCAIAAABy8bFOAAAgAElEQVR4Aey9D3Acx33nOznbl9gXqPJe7DiJY8SKSq4nOy7Q2hgKZMcwKa1NhjAtrUgZJGXIpLAQJeRJQkxnfUyCo0I8KQxsSWAc00oIM6eAsQwlzKFCZx1amzw90McEKuYQHQtMGChhav34tD76rYPc5l2qroRXM9090zPz69n507M7Q3xZW8TMb2Z6er7968/8pqen21jHPygABaAAFMieAkb2soQcQQEoAAWgwDroDCeAAlAACmRRAaOFf1AACkABKNBtBfz3B9C522WC80MBKAAFWi0lncfwDwpAASgABbqhALs3gc7d0B7nhAJQAAqoFQCd1dpgCxSAAlCgewqAzt3THmeGAlAACqgVAJ3V2mALFIACUKB7CoDO3dMeZ4YCUAAKqBUAndXaYAsUgAJQoHsKgM7d0x5nhgJQAAqoFQCd1dpgCxSAAlCgewqAzt3THmeGAlAACqgVAJ3V2mALFIACUKB7CoDO3dMeZ4YCUAAKqBUAndXaYAsUgAJQoHsKgM7d0x5nhgJQAAqoFQCd1dpgCxSAAlCgewqAzt3THmeGAlAACqgVAJ3V2mALFIACUKB7CoDO3dMeZ4YCUAAKqBUAndXaYAsUgAJQoHsKgM7d0x5nhgJQAAqoFQCd1dpgCxSAAlCgewqAzt3THmeGAlAACqgVAJ3V2mALFIACUKB7CnSCztu2bduEf5QCO3fu7F7Ru878wAMPfPjDH6by2AXb5k2bZjdtqib+HdSR99tvv/3+++93iYUVS4GdO3fqEPg6TGPbtm1afKQTdO7r6zPwj1Lgzjvv1FKKyRP59Kc//Y53vIPKYxds7zKMvzKM9cS/wzry/ta3vnX37t3JFb7+Urjzzjt1CHwdptHX16eluEHnbjoH6EyqDzprqdtpJwI6k95rGAborFImT3bQmSwt0DltsGpJH3QmvRd0VsmSMzvoTBYY6KyFnmknAjqT3gs6q2TJmR10JgsMdE4brFrSB51J7wWdVbLkzA46kwUGOmuhZ9qJgM6k94LOKllyZgedyQIDndMGq5b0QWfSe0FnlSw5s4POZIGBzlromXYioDPpvaCzSpac2UFnssBA57TBqiV90Jn0XtBZJUvO7KAzWWCgsxZ6pp0I6Ex6L+iskiVndtCZLDDQOW2wakkfdCa9F3RWyZIzO+hMFhjorIWeaScCOpPeCzqrZMmZHXQmCwx0ThusWtIHnUnvBZ1VsuTMDjqTBQY6a6Fn2omAzqT3gs4qWXJmB53JAgOd0warlvRBZ9J7QWeVLDmzg85kgYHOWuiZdiKgM+m9oLNKlpzZQWeywEDntMGqJX3QmfRe0FklS87soDNZYKCzFnqmnQjoTHov6KySJWd20JksMNA5bbBqSR90Jr0XdFbJkjM76EwWGOishZ5pJwI6k94LOqtkyZkddCYLDHROG6xa0gedSe8FnVWy5MwOOpMFBjproWfaiYDOpPfmjM47+voGDAM/vwKfxJzclIODzmmDVUv6muj8fYbxv2UGDz9jGD2US0az5WnW1/m+vquGgZ9fgWdAZ8rtQWct9Ew7EU10fpNhPJcZPPy1YfwM5ZLRbHmi8zf6+tYNAz+/Al8GnSm3B53TBquW9DXR+d8axh9nBg+vGcbtlEtGs4HO1wPuQWfS60FnLfRMOxHQmfTenLU7I3b2R83MAjqT/g06pw1WLemDzqT3gs7XQ+C8bhigM+nfoLMWeqadCOhMei/oDDprrnqf/vSn3/GOd6i8rcN20Flz6aaTHOisqhdod74eAI3YmfRv0DkdnGpOFXQmvRexs340/3fDmDSMku/3B2m+TgadSf8GnTVzNJ3k8kDnfzSMcV+dLhnGnyuqNfpsKIRRvTrrgH3VMJ41jPdQqNhlGH9iGP89nTyDzpTkBuicDk41p5p5Or9iGE8axo9SPvagYfyfVJ0GnSlVOoDggFN8hSpA2/YzhvGP6eQZdLZFlhdAZ80cTSe5zNP5cdmpfMt3G8brvmoNOvskCeBmZzaBzngr6Ku93PDWt7519+7d6fAt36mCziqfwVtBnU3PoDPorKppoLPqHgI6q3wGdAadVbUmjh10VtU00FnlT6CzymdAZ9BZVWvi2EFnVU0DnVX+BDqrfAZ0Bp1VtSaOHXRW1TTQWeVPoLPKZ0BnnXT+A8O40TDeTIn9vxrGXYbxf6fzJhN9NijJ0aNOxcNs2TNP5980jHcaxpsoH/sRwziAPhumP2V/FKTvGsaiYfRTxfgLhnHZMP4VdKbEScmGHnXZwrAiN5mn82uG8QeG0Ut56ZRh/ANVp9GjjlKlMz3nAs7y/xnG7xrGYd/v/0ozt4idqZqD2FmBw4yZM0/ndcNoGMYxX50+bBjLimoNOiuECUDn9boJdAadM4bcCNnJA52jkgN0Bp2FAqAz6BwBhxnbFXQmvRejIOl8JRj19qpxf9CZ9G+0O2eMw3R2QGfSe0Fn0JmuMLGt6FGnqmnoUadyKtBZ5TPoUXc9ABqxM+nfiJ1VQMyUHXQmvTdnsfODfX0HrO6F+N+jwBjm5KYcHHTOFIVVmQGdKec1bXmKnfv6+lSXscHtd4LOlAeAziogZsoOOlPOa9pAZ5UyebKDzmRpgc6ZorAqM6Az6b2gs0qWnNlBZ7LAQGcVEDNlB51J7wWdVbLkzA46kwUGOmeKwqrMgM6k94LOKllyZgedyQIDnVVAzJQddCa9F3RWyZIzO+hMFhjonCkKqzIDOpPeCzqrZMmZHXQmCwx0VgExU3bQmfRe0FklS87soDNZYKBzpiisygzoTHov6KySJWd20JksMNBZBcRM2UFn0ntBZ5UsObODzmSBgc6ZorAqM6Az6b2gs0qWnNlBZ7LAQGcVEDNlB51J7wWdVbLkzA46kwUGOmeKwqrMgM6k94LOKllyZgedyQIDnVVAzJQddCa9F3RWyZIzO+hMFhjonCkKqzIDOpPeCzqrZMmZHXQmCwx0VgExU3bQmfRe0FklS87soDNZYKBzpiisygzoTHov6KySJWd20JksMNBZBcRM2UFn0ntBZ5UsObODzmSBgc6ZorAqM6Az6b2gs0qWnNlBZ7LAQGcVEDNlB51J7wWdVbLkzA46kwUGOmeKwqrMgM6k94LOKllyZgedyQIDnVVAzJQddCa9F3RWyZIzO+hMFhjonCkKqzIDOpPeCzqrZMmZHXQmCwx0VgExU3ZNdH6jYTxuGNVs/L5qGO8hfTKSEXNyR5IrozuDzmTBgM6ZorAqM5robBjGvzWMN2fj9wOG8W9In4xkBJ0jyZXRnUFnsmBAZxUQM2XXR2fSC3JsBJ1zXHh21kFnWwp5AXTOFIVVmQGdZaeVl0FnWY28LoPOZMmBziogZsoOOpPei7eCKllyZgedyQIDnTNFYVVmQGfSe0FnlSw5s4POZIGBziogZsoOOpPeCzqrZMmZHXQmCwx0zhSFVZkBnUnvBZ1VsuTMDjqTBQY6q4CYKTvoTHov6KySJWd20JksMNA5UxRWZQZ0Jr0XdFbJkjM76EwWGOisAmKm7KAz6b2gs0qWnNlBZ7LAQOdMUViVGdCZ9F7QWSVLzuygM1lgoLMKiJmyg86k94LOKllyZgedyQIDnTNFYVVmQGfSe0FnlSw5s4POZIGBziogZsoOOpPeCzqrZMmZHXQmCwx0zhSFVZkBnUnvBZ1VsuTMDjqTBQY6q4CYKTvoTHov6KySJWd20JksMNA5UxRWZQZ0Jr0XdFbJkjM76EwWGOisAmKm7KAz6b2gs0qWnNlBZ7LAQOdMUViVGdCZ9F7QWSVLzuygM1lgoLMKiJmyg86k94LOKllyZgedyQIDnTNFYVVmQGfSe0FnlSw5s4POZIGBziogZsoOOpPeCzqrZMmZHXQmCwx0zhSFVZkBnUnvzRmd77nnnjvwj1Jgz549KtfvsH10dHRoaIjKYxdsO+644zfuuON3Ev8e1ZH3n//5n9+/f3+HiyMXp9uzZ48Oga/DNO655x4tJdiy/q37/hlsg5ZzIBEoAAWgABSIqgDoHFUx7A8FoAAU6IQCoHMnVMY5oAAUgAJRFQCdoyqG/aEAFIACnVAAdO6EyjgHFIACUCCqAqBzVMWwPxSAAlCgEwqAzp1QGeeAAlAACkRVAHSOqhj2hwJQAAp0QgHQuRMq4xxQAApAgagKgM5RFcP+UAAKQIFOKAA6d0JlnAMKQAEoEFUB0DmqYtgfCkABKNAJBUDnTqiMc0ABKAAFoioAOkdVDPtDASgABTqhAOjcCZVxDigABaBAVAVA56iKYX8oAAWgQCcUAJ07oTLOAQWgABSIqgDoHFUx7A8FoAAU6IQCoHMnVMY5oAAUgAJRFQCdoyqG/aEAFIACnVAAdO6EyjgHFIACUCCqAqBzVMWwPxSAAlCgEwp0gs733HPPdTYr+sc//vFyudyJ8glxjt27d2uQd+sdd0zdccfvJP59VkNePvaxj91///0hLr0Tu9x///0f+9jHNFxVlpLYvXt3J7QLcY5yufzxj388K9ps337Hk0/e8Tu/k/B3z6/9WohLb79LJ+jc19dnXF//ent7R0dH26vbkT02b96sQd0bDONFw1hP/HtGQ156enpKpVJHxGt/klKp1NPTo+GqspTE5s2b2195R/YYHR3t7e3NijZvf7vxrW8Z6+sJf33f+IYW8UDnOI4BOis5DjrHcahOHwM604qDzrQuubKCzqBzrhzWm1nQ2asIWwedaV1yZQWdQedcOaw3s6CzVxG2DjrTuuTKCjqDzrlyWG9mQWevImwddKZ1yZUVdAadc+Ww3syCzl5F2DroTOuSKyvoDDrnymG9mQWdvYqwddCZ1iVXVtAZdM6Vw3ozCzp7FWHroDOtS66soDPonCuH9WYWdPYqwtZBZ1qXXFlBZ9A5Vw7rzSzo7FWErYPOtC65soLOoHOuHNabWdDZqwhbB51pXXJlBZ1B51w5rDezoLNXEbYOOtO65MoKOoPOuXJYb2ZBZ68ibB10pnXJlRV0Bp1z5bDezILOXkXYOuhM65IrK+gMOufKYb2ZBZ29irB10JnWJVdW0Bl0zpXDejMLOnsVYeugM61LrqygM+icK4f1ZhZ09irC1kFnWpdcWUFn0DlXDuvNLOjsVYStg860Lrmygs6gc64c1ptZ0NmrCFsHnWldcmUFnUHnXDmsN7Ogs1cRtg4607rkygo6g865clhvZkFnryJsHXSmdcmVFXQGnXPlsN7Mgs5eRdg66Ezr0tb6bwzjBwzjzZn49d6MObkVs3d/UUMB9bytp7QzM3Ny79zZ87a3GW9+cyZ+3//9bStKmB2uQzq/8Y0aCugnf9I4fz7hhNzG+vrGm5P7PYbxVcOoZuLXe7J39MColknRkyeyefPmMBWyzT43GMaLCuCuR7Ff0VBAPX/YU/qlzND5l36p5w//0KhWM/F78knjLW9pU5QhNl+HdN62TUMB/dmfGc0m6BzCgzy73G4Yr0XBRCSmRNy595Xe0YdB57SKo+daT+lIZuh85EjPtWvJa6yeFF580bjhBk/NiLF6HdJ5bEyPwuvrydPZeLEz6KwIs7MVO0e8z5Ht16CzEhCgs+peBDor+NDG3NfXp5I0gh10VsgMOiuE0WMuIXbWIySdyujoaG9vbwQOqHYFnWmB21lB53YKJdoOOieSr93BoHM7hRJtB50D5GtZ/9Z9/wy2IeDI8JtA5/BaxdgTdI4hWvhDQOfwWsXYE3QOEA10jvNqC28FyfZiXUa0O6PdWdWAobSjZSMA8wGbUo+d/9owHvf9vmgYjTjkDYMY0DmMSrH32UB0vnjRePxx729mxrh6lQY03gqq8Aw6ByA4YFO6dL5iGP8HVWK9hnE6LUCDzrHJG+bAjULnf/xH4zd+g/DdH/sx42tfM157jQA06EzoZZlA5wAEB2xKkc6vG8bDhvF2qsTeZBg/aRhfTCV8Bp3DQDb2PhuFzo8+avzojxK++8Y3Gr29xlNPgc6EOCoT6ByA4IBN6dL5blVxWfbHQedAfeyNur4VRH/n8J8zfPKTtvzEwq/8CuhMyKIygc4BCA7YBDoHiJN8E/psJNcwIIUU+2yAzmNj6LMR4Hs577PxumEgds7UOBuInRE7B/DGtwl09kniGEDnOE0faHeO3aYc5sCN0u6M2Bmxs4NiYgl0Bp2tljy0OxO1wzShZUMhjB4zYucAHUFn0Bl0DqggoHOQOMm3gc4BGuaczuuG8eeGMUa9x327YTxhGH8dB75tn77RstFWoiQ7bJSWjZdeMh5+mPDdt77V+LVfM/7Lf0GfDUIclQl9NgIwH7ApxT4b7B3UnxvGXb7fQ4bxj6mg2Vg3QOck8G177Eah8/q6sbho3HWX91cuG6++SqB5fd3A1yig8/p63kZBet0w/D8d/QdIlIDOpCy6jBuIzuvrxuuvEz9Vxw/QGXTOH51TAzFJHNCZlEWXcWPRWQVi0g46g86gczBoQOdgfRJuBZ3pZg20bKjQbBgG2p0DGpcDNqXe7tzZwBntzgnh2/Zw0Bl0DuAwvQl0DkBwwCbQOUCc5JvwJXdyDQNSSLG/M9l2EWxEywbNZsTOAS4cuKnvwT7jgJH09xuG8U86+mC8ZBjHk/56j/aOPnh9zcn9A4bxWFJZTGHPaSijbMXOjz7aMzNjHD+e9PfKK8qIOJjI8tZLl4zHHjMOHEj42/zgg4FVtnMbs9Xf+V/+xfijP0pa0MeP9x0+rEXBjvR3/kZf24fZzu1Ado5W3ZAV9t7e3tHR64vOiiuNbH70uqNzqdTT0xNZB/8Bzzyjgc4yqRMsb/7KV7TgI3ki2aLza68Zt9/uL7qolr6+vuTKjI2Ngc5RlTf3B52VqoHOKmlAZ4pYoDOlCreBzqrKFGQHnZXqgM4qaUBnikOgM6UK6KyqRSHsoLNSJNBZJQ3oTHEIdKZUAZ1VtSiEHXRWigQ6q6QBnSkOgc6UKqCzqhaFsIPOSpFAZ5U0oDPFIdCZUgV0VtWiEHbQWSkS6KySBnSmOAQ6U6qAzqpaFMIOOitFAp1V0oDOFIdAZ0oV0FlVi0LYQWelSKCzShrQmeIQ6EypAjqralEIO+isFAl0VkkDOlMcAp0pVUBnVS0KYQedlSKBzippQGeKQ6AzpQrorKpFIeygs1Ik0FklDehMcQh0plQBnVW1KIQddFaKBDqrpAGdKQ6BzpQqoLOqFoWwg85KkUBnlTSgM8Uh0JlSBXRW1aIQdtBZKRLorJIGdKY4BDpTqoDOqloUwg46K0UCnVXSgM4Uh0BnShXQWVWLQthBZ6VIoLNKGtCZ4hDoTKkCOqtqUQg76KwUCXRWSQM6UxwCnSlVQGdVLQphB52VIoHOKmlAZ4pDoDOlCuisqkUh7KCzUiTQWSUN6ExxCHSmVAGdVbUohB10VooEOqukAZ0pDoHOlCqgs6oWhbCDzkqRQGeVNKAzxSHQmVKlg3T+wH/6wFu+95as/MbekvzfzTffnJ05uYvFYvIr0pbCIxoK+m3/8Ladh3cGeG0nN+3cufNtb3ubBn0+//m3fO97GfkVv/zlTmoYcK7R0dGbb75Zg7xjYxq0/bu/e8uHP5w8Mx/4wAcCLjn8pk7M+rrnc3s+8eufyMpv7BPJ/917773lcjm8yqnuOTIykvyKtKVwQENBl6ZK+//3/amKFj7x/fv3l0olDfo8+ugnfv3XM/Ib+cVfDK9AqnuWy+V7771Xg7xjYxq0PXLkE/fdlzwze/bs0SJaJ+isJaNIBApAASiwoRQAnTdUceNioQAUyI0CoHNuigoZhQJQYEMpADpvqOLGxUIBKJAbBUDn3BQVMgoFoMCGUgB03lDFjYuFAlAgNwqAzrkpKmQUCkCBDaUA6LyhihsXCwWgQG4UAJ1zU1TIKBSAAhtKAdB5QxU3LhYKQIHcKAA656aokFEoAAU2lAKg84YqblwsFIACuVEAdM5NUSGjUAAKbCgFQOcNVdy4WCgABXKjAOicm6JCRqEAFNhQCoDOG6q4cbFQAArkRgHQOTdFhYxCASiwoRQAnTdUceNioQAUyI0CoHNuigoZhQJQYEMpADpvqOLGxUIBKJAbBUDn3BQVMgoFoMCGUgB03lDFjYuFAlAgNwp0gs5DQ0P919e/O++8s1wuZ6SQd+3alVzdn/u5n3vqqadOZ+PfqVOnDh48mBF5Dx48eOrUqeTCPPzww8mLSVcKu3btyoi85XL5zjvvTH5dY2Njycvo937v9+6+++7kmRkaGtIibyfo3NfXZ1xf/3p7e0dHR7UUQPJENm/enFzdG2644cUXX1zPxr9r164dOXIkuTJaUjhy5Mi1a9eSC/Poo48mLyZdKWzevFmLOMkTGR0d7e3tTX5dY2Njycvotddeu/3225Nnpq+vL7kyY2NjoHOcsgCdk9eEgBRA5zhOGeUY0Jl0P9A5ihNldV/QmXRuXUbQOW3HB51JXwWd03a8TqQPOpPOrcsIOqftxKAz6augc9qO14n0QWfSuXUZQee0nRh0Jn0VdE7b8TqRPuhMOrcuI+icthODzqSvgs5pO14n0gedSefWZQSd03Zi0Jn0VdA5bcfrRPqgM+ncuoygc9pODDqTvgo6p+14nUgfdCadW5cRdE7biUFn0ldB57QdrxPpg86kc+sygs5pOzHoTPoq6Jy243UifdCZdG5dRtA5bScGnUlfBZ3TdrxOpA86k86tywg6p+3EoDPpq6Bz2o7XifRBZ9K5dRlB57SdGHQmfRV0TtvxOpE+6Ew6ty4j6Jy2E4POpK+Czmk7XifSB51J59ZlBJ3TdmLQmfRV0Dltx+tE+qAz6dy6jKBz2k4MOpO+Cjqn7XidSB90Jp1blxF0TtuJQWfSV0HntB2vE+mDzqRz6zKCzmk7MehM+ironLbjdSJ90Jl0bl1G0DltJwadSV8FndN2vE6kDzqTzq3LCDqn7cSgM+mroHPajteJ9EFn0rl1GUHntJ0YdCZ9FXRO2/E6kT7oTDq3LiPonLYTg86kr25EOheLxVuur38f/OAHy+Wylml3kyeSqTm5v/vd764k/vcXf/EXv/zLv5xcGS0p6JqT+4knnshOJbjrrru0iJM8EczJHaBhJ+bkfu655xJX2Gwl8PWvf/2hhx4KkLWTmzJF5+eeey45gzZt2rRnz55OahhwLl10fu2117LjxE8//XTAJXdyE+gcoHYn6PyNb3yDfI7Ir/GVV155+OGHA2Tt5KZM0fmZZ55J/lTe09NTKpU6qWHAuXTROVPe/pWvfCXgkju5CXQOUBt0jlNrQGeVaqCzSplM2UFnsjg2YrszYueA22PyTYidk2sYkAJi5wBxkm9C7BygIWJn8ibaxojYWSUQYmeVMpmyI3YmiwOxMylLzoygs6rAQGeVMpmyg85kcYDOpCw5M4LOqgIDnVXKZMoOOpPFATqTsiQyfutb39rv+/e5z33u29/+dqJ01QeDziptQGeVMpmyg85kcYDOpCzxjS+//PLExIS/F9eP//iPf/GLX7x8+XL8pNVHgs4qbUBnlTKZsoPOZHGAzqQsMY2vv/76zp073/CGN/jp/H3f931vfOMbp6amYiYdeBjorJIHdFYpkyk76EwWB+hMyhLT+Prrr999991+NNuWxx9/PGbSgYeBzip5QGeVMpmyg85kcYDOpCwxjaDz2NgY+jsH9BhNvgn9nZNrGJAC+jsHiJPv/s6gM+gc4NxaNoHOWmRUJQI6q5QZGxsDneOE7WjZUKmGlg2VMpmyo2WDLA60bJCyxDQidkbsHBB6aNmE2FmLjKpEEDurlLkeYueRkZEf/MEftF8D2gtveMMbfuiHfmh6ejom+AMPQ+yskgexs0qZTNkRO5PFgdiZlCW+8eLFi4cOHbKhbC/8xE/8xMmTJ69cuRI/afWRoLNKG9BZpUym7KAzWRygMylLIuPS0tJjvn9TU1NXr15NlK76YNBZpQ3orFImU3bQmSwO0JmUJWdG0FlVYKCzSplM2UFnsjhAZ1KWnBlBZ1WBgc4qZTJlB53J4gCdSVlyZgSdVQUGOquUyZQddCaLA3QmZcmZEXRWFRjorFImU3bQmSwO0JmUJWdG0FlVYKCzSplM2UFnsjg2Ip0fffTRz2Xm31/+5V+SBRPJCDqr5Lr+6PzQQw999rOfzYz/6snIL/zCLwR8BNHJTQ8++ODk5OSTif9Vq9X1xP82Ip37+vrsbshdX3j22WcTF+I66KzS8Pqjc6lU6unp6brf6s3A5s2bO4nggHM9/PDDr7zyisqdOmwHnfW6WeTUQGdSshtuuOHFF19MXhlAZ1LerBlBZ9LVQecuOyroTBYA6KyK7xA7q5TRYkfsHCBjJ8aoQ8tGQAEk34TxnZNrGJAC6BwgTvJNoHOAhqAz+YjTxoh2Z5VAaNkgH02yZkTLBunAaNnosqOiZYMsALRsqEIYxM4qZbTYETsHyIjYmbyJtjEidlYJhNiZvPllzYjYmXRgxM5ddlTEzmQBIHZWhTCInVXKaLEjdg6QEbEzeRNtY0TsrBIIsTN588uaEbEz6cCInbvsqIidyQJA7KwKYRA7q5TRYkfsHCAjYmfyJtrGiNhZJRBiZ/LmlzUjYmfSgRE7d9lRETuTBYDYWRXCIHZWKaPFjtg5QEbEzuRNtI0RsbNKIMTO5M0va0bEzqQDI3busqMidiYLALGzKoRB7KxSRosdsXOAjIidyZtoGyNiZ5VAiJ3Jm1/WjIidSQdG7NxlR0XsTBYAYmdVCIPYWaWMFjti5wAZETuTN9E2RsTOKoEQO5M3v6wZETuTDozYucuOitiZLADEzqoQBrGzShktdsTOATIidiZvom2MiJ1VAiF2Jm9+WTMidiYdGLFzlx0VsTNZAIidVSEMYmeVMlrsiJ0DZETsTN5E2xgRO6sEQuxM3vyyZkTsTDowYucuOypiZ7IAEDurQhjEzipltNgROwfI2InY+UMf+tDbM/PvqaeeejXxv7Nnzz700EMBsu+8YTwAACAASURBVHZy07Zt25Kr+1M/9VNf+9rXEgvz6pNPPpk8MzfeeOMnP/nJTmoYcK5PfvKTN954Y/KLylQK27ZtC7jkTm566KGHzp49m9zxtKTw8ssv33nnnclL6kMf+pAWDTtB53379t2XmX/j4+OfTfzvscce06K+lkT279+fXN1PfepTjzzySGJhPvvwww9ryczo6KgWcZInMjo6+qlPfSr5RWUqhf379ydXRlcKjz32WHLH05LCZz7zGS21ad++fVrE6QSdtWQUiUABKAAFNpQCoPOGKm5cLBSAArlRAHTOTVEho1AACmwoBUDnDVXcuFgoAAVyowDonJuiQkahABTYUAqAzhuquHGxUAAK5EYB0Dk3RYWMQgEosKEUAJ03VHHjYqEAFMiNAqBzbooKGYUCUGBDKQA6b6jixsVCASiQGwVA59wUFTIKBaDAhlIAdN5QxY2LhQJQIDcKgM65KSpkFApAgQ2lAOi8oYobFwsFoEBuFACdc1NUyCgUgAIbSgHQeUMVNy4WCkCB3CgAOuemqJBRKAAFNpQCoPOGKm5cLBSAArlRAHTOTVEho1AACmwoBUDnDVXcuFgoAAVyowDonJuiQkahABTYUAqAzhuquHGxUAAK5EaBTtD5ox/96C3X178PfvCD5XI5I4V81113JVf31ltuffaWZ1+65aWEv/9wy39Inpn3v//9e/bsyYi8e/bsef/735/8orSkcPctd//pLX+asIxeuuWlJ+96MiPyHigf+P0P/n7yK9KSwh/f8sdDtwwlL6mPfvSjWuTtBJ37+vqM6+tfb2/v6OiolgJInsjmzZuTq3uDccOLxovrxnrC3zPGM8kz09PTUyqVkiujJYVSqdTT05P8orSkcIdxxz8Z/5SwjNaN9a9s/ooWcZIn8vDow6/0vpL8irSk8Jrx2u3G7clLqq+vL7kyY2NjoHOcsgCdVZUBdI7jT6GPAZ1VjqfFDjqH9sQM7wg6qyoD6Jyq24LOKsfTYgedU/XeDiUOOqsqA+icqguCzirH02IHnVP13g4lDjqrKgPonKoLgs4qx9NiB51T9d4OJQ46qyoD6JyqC4LOKsfTYgedU/XeDiUOOqsqA+icqguCzirH02IHnVP13g4lDjqrKgPonKoLgs4qx9NiB51T9d4OJQ46qyoD6JyqC4LOKsfTYgedU/XeDiUOOqsqA+icqguCzirH02IHnVP13g4lDjqrKgPonKoLgs4qx9NiB51T9d4OJQ46qyoD6JyqC4LOKsfTYgedU/XeDiUOOqsqA+icqguCzirH02IHnVP13g4lDjqrKgPonKoLgs4qx9NiB51T9d4OJQ46qyoD6JyqC4LOKsfTYgedU/XeDiUOOqsqA+icqguCzirH02IHnVP13g4lDjqrKgPonKoLgs4qx9NiB51T9d4OJQ46qyoD6JyqC4LOKsfTYgedU/XeDiUOOqsqA+icqguCzirH02IHnVP13g4lDjqrKgPonKoLgs4qx9NiB51T9d4OJQ46qyoD6JyqC4LOKsfTYgedU/XeDiUOOqsqA+icqguCzirH02LfiHS+t+/ercbW6+l3d+/d5dGylml3kyeCObmTaxiQwqdLn97esz0j3vs543Mto5WcRNmZk/vA6IGTvSerRjXh76JxMbksG5HOf9z3x/9i/Mv19Hu59+WHRh8KqNKd3AQ6p6r246XHv93z7Yx47/8w/kdyBq0b69mh8+jo6M29N7/ZeHPC37gxnlyZjUjnb/R9I7lwmUrhld5XHh59OFUohE8cdA6vVYw9j5SOXOu5lin3S56ZTNG5t7c3eXPQmDGWXBbQeT25iF1PAXRWFcH11+4MOse4pYU/ZHR0FHRWydWy/q37/hlsg+qwSHbEzpHkirozYueoikXaH3SOJFfUnUHnAMVA5zixPGJnxM4qBXJhR8sGWUxo2YhDQ1LKLhpBZ5X4aNlQKZMpO+hMFgforJ/O/2r86/eM73l+a8ba/zT+J1kGyY2gs0pD0FmlTKbsoDNZHKCzfjr/qfGnW4wtnt+njE/9vfH3ZBkkN4LOKg1BZ5UymbKDzmRxgM6a6fx14+ufMj7l75HzNuNth4xDS8YSWQwJjaCzSkDQWaVMpuygM1kcoLNOOr9uvH63cbcfzbblceNxshgSGkFnlYCgs0qZTNlBZ7I4QGfQOaALTZxN6FEXR7XQx6BHXWip4uyIHnUBquW7Rx1i57GxMdA5wL+TbwKdk2sYkALoHCAO6BwnlkfLBvlguG6so2VDpUym7GjZIIsDLRtxaEhKuW6sI3ZG7BwQemjZhNhZi4yqRBA7q5QZGxtD7BznboHYWXW/ROysUiZTdsTOZHEgdo5DQ1JKFjt/xvjMu4x32Z007IXvN77/PcZ7ftv4bdWxSeygs0o90FmlTKbsoDNZHKCzTjqvG+vfMb7zlPGUDWV74V3Gu84aZ79nfI8shoRG0FklIOisUiZTdtCZLA7QWTOd1431FWPlaeNpz++kcfKakdawvKAz6dx4K6iSJWt20JksEdBZP51JoVM1gs4qeRE7q5TJlB10JosDdAadA17SxtmE/s5xVAt9DPpshJYqzo7osxGgWr77bJA3wA4YETurREbsrFImU3bEzmRxIHZG7Bxws4yzCbFzHNVCH4PYObRUcXZE7BygGmLnOHcLxM5k6IG3gipZsmZH7EyWCGLnODRcN9b/1vjbB40Hh43hLPzu671vbDTgntfRTZmKnf/W+NuvGl9N+DvZc/IXS7/YURHVJ3ug9MDunt1Z8DqNedi3eZ/6iju6BbFzgNy5iZ2/ZXzr7cbb7e7M3V3o7e0dHc0KnjNFZzIkiWq81nPtSOlIgNd2clOpVOrp6emuv2k/++bNmzupYcC5QOcAcUDnOJ4POkcFbqT9Qec4ThnlGNCZdEi0bMRs2UDsrLrHInZWKaPFjthZi4yqRBA7q5TJ0yhIoLOqFEFnlTJa7KCzFhlViYDOKmVA5yhPg9K+aNkgHwx1GdGyIflaKoto2SB9FS0baNkIuFnG2YTYOY5qoY9B7Bxaqjg7InYOUA1vBePEJoidydBDlxGxcxynjHIMYmfSVxE7I3YOuFnG2YTYOY5qoY9B7Bxaqjg7InYOUA2xc5SQQ+yL2JkMPXQZETsLR0vrL2Jn0lcROyN2DrhZxtmE2DmOaqGPQewcWqo4OyJ2DlANsXOc8ASxMxl66DIido7jlFGOQexM+ipiZ8TOATfLOJsQO8dRLfQxiJ1DSxVnR8TOAaohdo4Scoh9ETuToYcuI2Jn4Whp/UXsTPoqYmfEzgE3yzibEDvHUS30MYidQ0sVZ0fEzgGqIXaOE54gdiZDD11GxM5xnDLKMYidSV9F7IzYOeBmGWcTYuc4qoU+BrFzaKni7IjYOUA1xM5RQg6xL2JnMvTQZUTsLBwtrb+InUlfReyM2DngZhlnE2LnOKqFPgaxc2ip4uyI2DlANcTOccITxM5k6KHLiNg5jlNGOQaxM+mriJ0ROwfcLONsQuwcR7XQxyB2Di1VnB0ROweohtg5Ssgh9kXsTIYeuoyInYWjpfUXsTPpq4idETsH3CzjbELsHEe10Mcgdg4tVZwdETsHqNaJ2PnElhNLNy0l/M3dNHfrTbfelI1/t912W3bm5N6xY0dyVX76pp8+edPJhGWk6/A/e++f/fvd/z7Aazu5affu3e9973uTK5ypFHbs2NFJDQPONTo6ettttyUXZ+ymseTu982bvrntpm3JM7Nly5aASw6/qRN0Dp8b7AkFoAAUgAJMAdAZngAFoAAUyKICoHMWSwV5ggJQAAqAzvABKAAFoEAWFQCds1gqyBMUgAJQAHSGD0ABKAAFsqgA6JzFUkGeoAAUgAKgM3wACkABKJBFBUDnLJYK8gQFoAAUAJ3hA1AACkCBLCoAOmexVJAnKAAFoADoDB+AAlAACmRRAdA5i6WCPEEBKAAFQGf4ABSAAlAgiwqAzlksFeQJCkABKAA6wwegABSAAllUAHTOYqkgT1AACkAB0Bk+AAWgABTIogKgcxZLBXmCAlAACoDO8AEoAAWgQBYVAJ2zWCrIExSAAlAAdIYPQAEoAAWyqEAn6Dw6Orr/+vr3wAMPZKcwy+VycnUfeGD/g+X9BxL/xnQU9QMPPFAulzOicLlcfuCBB5IrPDaqQd4Hy/t15GV/duQdGxvTIm9Zh7wHyvtHNRT1/tHRUS3e2wk6Dw4OvvP6+nfrrbfqKoDkpbh9+/bk6t70rnf+0rZ3/tbupL99Oor63e9+9/DwcHJltKQwPDz87ne/O7nC+waTavtbu80yuuldyfPyzu3bt2sRJ3kio6Ojt956a/JL+vgHNMg7vfOdP/ue5Hl55+DgYHJlxsbGOkHnvr4+4/r619vbmx06b968Obm6b36T8SsfNp7fmfR3/6bkeTF6enpKpZIW/06eSKlU6unpSX5V929Kqu3zO80yevObkufF2Lx5c3JltKQwOjra29ub/JLuuFGDvM8OGe/+4eR5Mfr6+rSIAzrHKQzQWcVx0FnlT6AzCSzQmZSFGUFnVW0KsoPOoHOQf1DbQGcSQ6AzKQvoTNWhcDbQGXQO5ynOXqAziSHQmZQFdHZqTtQl0Bl0juozoDOJIdCZlAV0jlq/nP1BZ9DZ8YZwS6AziSHQmZQFdA5Xq6i9QGfQmfKLIBvoTGIIdCZlAZ2D6lLwNtAZdA72EP9W0JnEEOhMygI6+2tQWAvoDDqH9RWxH+hMYgh0JmUBnUW9if4XdAado3oN6ExiCHQmZQGdo9YvZ3/QGXR2vCHcEuhMYgh0JmUBncPVKmov0Bl0pvwiyAY6kxgCnUlZQOeguhS8DXQGnYM9xL8VdCYxBDqTsoDO/hoU1gI6g85hfUXsBzqTGAKdSVlAZ1Fvov8FnUHnqF4DOpMYAp1JWUDnqPXL2R90Bp0dbwi3BDqTGAKdSVlA53C1itoLdAadKb8IsoHOJIZAZ1IW0DmoLgVvA51B52AP8W8FnUkMgc6kLKCzvwaFtYDOoHNYXxH7gc4khkBnUhbQWdSb6H9BZ9A5qteAziSGQGdSFtA5av1y9gedQWfHG8Itgc4khkBnUhbQOVytovYCnUFnyi+CbKAziSHQmZSlc3TeuaXvzp8yrqffjv7e8uhogKyd3JSpObl/9cMaCnrre3s+vTsrc3J/endp63t7knvvr+qY8vypjxk/f7MGhfd8PCtzcpdHR3f09yaX9xf6MSd3LOocva9PFWrl1P7F3b0HxkBnDfWBdIDfvbfnMw9khc6feaD0u/f2kPnMr3Hy/qzQ+cDY6Bd392ZEyWeHjHf/cNADUMhtfX19sUjpPagTc3KDzl7Vta5nKnbWUs1AZy0yBiQCOpPigM5pBVyk3CkZETunJCxLFnROVd7ndxqgM6kw6Aw6a42cx8YQO2sW1J0cWjbcemheQ8tGgKBo2Yhzt0DsTIYeuoyInXUpqUoHsTOpDGLnODQkpeyiEXROVXzQOVV50bKhkhd01k/n2R3G0aL399THjN+7W/+5WLmCzir/1mIHnbXIGJAIYmdSHNBZPzE/M2C8/d95fz/9I8bTW/WfixUq6Ew6ty4j6KxLSVU6oDOpDOismZgPfcDY9KNEN8R/9yZj8F3GL/+c5tOxQgWdSefWZQSddSmpSgd0JpUBnXXi8qs7jQ+8g0Czbdr1Xp2ns0sUdLalSGMBdE5DVTlN0FlWw14GnXXiEnQeQ4+6gB5JOjahR50OFZVpoEedUpqxsXz3qAOdQecA59ayCXTWIqMqEdBZpcwY6Gw/1ERaQMtGJLmi7oyWjaiKRd0fLRukYmjZQMtGwM0yziZ8KxhHtdDHIHYOLVWcHRE7B6iGlo04dwvEzmToocuI2FmXkqp0EDuTyiB2jkNDUsrndxpf3WnseZ/xU/+L3UfDWfiBNxrv+xHjsZ/VeTo7G6CzLUUaC6BzGqrKaYLOshr2MuisH5fjHzC+z/D+fuwHjemP6j8XK0jQ2XboNBZA5zRUldMEnWU17GXQWT8xf+vnjc/c7v398oeNk5/Qfy5WkKCz7dBpLIDOaagqpwk6y2rYy6BzWsS0Je7AAuicqsigc6ryYhQklbygM+gc8JI2zib02YijWuhj0GcjtFRxdkSfjQDV8t1nQ3UPTNuO2DlVhRE7pyovYmeVvIidETsH3CzjbELsHEe10Mcgdg4tVZwdETsHqNaJ2PnwcN+Xh4yEv9/ZYfz+PRrI/pVPJM3Jl4eMozt7HyxjTm6iOP7jXRrknflEz6P7sjIn96P7SjOf6EnovVk7/HP3ZWVO7gfLo0d39ibX5ys6ugBsxNj5joG+m3/YSPi740bjxA4CB6qHFJV99/uS5uTmHzYG3ts7Ogo6E8Xx6M9qkPd97+zZc29W6Lzn3tL73tmT0HuzdvgntmaFzqOjowPv7U2uz+73Ed6ogoDKvhHp3NfX53wlEnfp3T9sPDukoQDuuDFuDqTjentBZ7os7t8kyRR3saenp1TKCp1LpVJPT0/cS8nocZs3Z4jOvb29yWW640baIVUgJu2gc8yCAJ1V7VOZancGnWP6d2cPA51BZ84TxM4qsGqxg85aZFQlgthZpYwW++joKGJnlZKdeCsIOqvU12IHnbXIqEoEdFYpo8UOOgfICDrHeaREuzP5YPj8TgMtG3H8qePHoGWDdGC0O8f0RLQ7q+6xiJ1VymixI3bWIqMqEcTOKmU6NDcKWjYCCiD5JtA5uYYBKYDOAeIk3wQ6B2iIlo04sTxaNsgHQ7RsxHGmbhyDlg3SgdGyEdMZ0bKhuscidlYpo8WO2FmLjKpEEDurlEHLRsxbBWJnMvRA7BzTnzp+GGJn0oERO8f0RMTOqnssYmeVMlrsiJ21yKhKBLGzShnEzjFvFYidydADsXNMf+r4YYidSQdG7BzTExE7q+6xiJ1VymixI3bWIqMqEcTOKmUQO8e8VSB2JkMPxM4x/anjhyF2Jh0YsXNMT0TsrLrHInZWKaPFjthZi4yqRBA7q5RB7BzzVoHYmQw9EDvH9KeOH4bYmXRgxM4xPRGxs+oei9hZpYwWO2JnLTKqEkHsrFIGsXPMWwViZzL0QOwc0586fhhiZ9KBETvH9ETEzqp7LGJnlTJa7IidtcioSgSxs0oZxM4xbxWIncnQA7FzTH/q+GGInUkHRuwc0xMRO6vusYidVcposSN21iKjKhHEziplEDvHvFUgdiZDD8TOMf2p44chdiYdeCPGztu2bduU+N+dt296fHjT0fuS/u7ZkjgrmzZ95CMfKZfLATe9Tm4qlUrJL+kDt276xbuTanv0vk37NRT1pttuu+2+++7rpIYB57rvvvtuu+225ApnKoXsTHleLpc/8pGPJBfnni0avPfx4U133p48L5u2bdsW4FHhN3VifOfwucGeUAAKQAEowBQAneEJUAAKQIEsKgA6Z7FUkCcoAAWgAOgMH4ACUAAKZFEB0DmLpYI8QQEoAAVAZ/gAFIACUCCLCoDOWSwV5AkKQAEoADrDB6AAFIACWVQAdM5iqSBPUAAKQAHQGT4ABaAAFMiiAqBzFksFeYICUAAKgM7wASgABaBAFhUAnbNYKsgTFIACUAB0hg9AASgABbKoAOicxVJBnqAAFIACoDN8AApAASiQRQVA5yyWCvIEBaAAFACd4QNQAApAgSwqADpnsVSQJygABaAA6AwfgAJQAApkUQHQOYulgjxBASgABUBn+AAUgAJQIIsKgM5ZLBXkCQpAASjQhs5sM/6HAlAACkCBriiw7vtndCUfOCkUgAJQAArICvjgvA46y/pgGQpAASjQHQVA5+7ojrNCASgABYIVAJ2D9cFWKAAFoEB3FACdu6M7zgoFoAAUCFYAdA7WB1uhABSAAt1RAHTuju44KxSAAlAgWAHQOVgfbIUCUAAKBCrwve9+++p3Qv1e+38DE/JuzBydG2dnJk8sLF5qenOavfXl5ycnD09OPr+sJ2vL82ZqX6rV9STXaq01ls8srkZOrdmo1+v1hroA2u7gP2V9+dxKUIqXlpZfDdjuT9Bvqde+ZBbHcU36NS9V585qKwp/dpNaMlS45KXw4pjXVDn4Oa6tLJ6pVs8s84JZq69cVvspma82xubKS9XqmcWVa232czYvX7znC0tbpkP/vnDhl16sh8x0dDqzumlW4Hj/Aitho1oZLBQKheETK871h19Kmjfriq6GlK5VO2RmtXCoFj6D5p5Xq5M7SlPnGt6jzlasK5+NzlNvStZZFiYGzPTKz0dFTM3KR0V9VW138OVneWaIXdtl3ybT0FyYMDcXDqvPSR7nMq7ODlvnOKFBv+bZiineYKXqKyXXObu1cjVLhdtqta41fXWGF0flrFaNLrNCZs7ZqB0qFgoDpSPVVd/p456VZXt4lnZUItW/qV4w0fzUy/f8ZpvfVongo18PBejodGYQsWpTrP8Cqn2D19K9sytrhBDtTUnzZl3QcFg+xqPz6kmLIoXixIKLmxxRoc/eVo2lJ4rm9fRPLERDTFv4tt3Bm7XlYxac9825Ltje61p1ot9k4dQ52xRjQSedW63V2b2meMUnlmJkpQOHZKdwW61m9WChMDA4/CU5Tu4AnVuN87Pjlo8Xto7Pno/m5Yoyiknn+6tXFQna5lcfN+n8yp9cXhm1Yu0wgI5L5x1l8zHc9yvvMH166ACxafJw2aqjSjqvnGDYshAZ8F8AvxidFXnz59ZnsXIYkL4ttbXA6bxvumo+bQX9lq+4jlw5OWLFtQMjJ51HhFV2+aHP7kqRXGksWNSLipi28G27gzs3a4tT1vPQxBk6wmmesSLnwanFeLdkfja9dG61zk9ZFX/4+CX35WRkLSOF22q1rsyNmLXVc3NNh871+bJ5LokhzZW5R6yCKk4t2v7FQ2wKIm3qV+p0/mar1QwN6Lh05o/zjaUXqnKcy4AlP86sVOeX+H0lqFY3zlbYXZBS1G0L0JfROWpTg1PfrBwGpO/saS5xOrtzR67JgrA07FuR3YbD6bw3bOTuzgu9Zqa5tTx9JtKTX1AxmadxPV3S53VZz1lw3jEjR1bSDrzCFZ+o0S1lYRuadNO5JZ7kyvN0yC9dQ1cWM1G4rRZ/MPKWbzp0bpHO2Vx9YWZevolmm85mW144QCehc7P2q2ZQVDxUsx8qvHS+PDvcXyj0D8+a2pHKmo7dvHjc3C2wuVngu1g5a5/NVyl8dF48OjS0vc1v+iU7nVh0DhGqk+9GTEAXx22vWn7aerQIe2tZnRtvc13mhW8dHNzafrfxU3Jbrb+Y+Bse/qhxcNgKhYfKvicn1xu5gBpiFrUIf3jkRd7ULGPYm2VSOjcvLZoPQBckFPPm8sHKWTsqs10l1YXMF6599bxVqjByStLN3BqDzovT7arq0PZB9tA5qNxzfO5VEUB4PIc5pMdoXwhfYNmO3O4cvmXjm+KMDqCr3xY2798kdG61GjUW8doBoJvOovGO49tf7c3cOGh+eknJ3UsW5QPxbablo7OVnwFlWW4xy1oKbGPROSxPvdK3Wo2G1FrFI/Gwb8a496upFmHLsOtNmr+Ywp7LlU44OvP208EicRO1SqfgVKfg2lsctG7wBTIpuzIfXfQXA7PwZxdXaVotqoVCwRsYqtLQZQ8reJgydhUKESGFPZc7HX6lPHAOkw9qH3eazPGo/SLYLLCSILaN9dpxX2AhGjknrNBjcPig3TZLRlZOQbO3gjHoLEXQF778N06C8lIyOrdaPKTl0TF/2Ge84w/vw8dF04e/2rca56ZKVqUqPbGoRLN9D3h2pU0MQ9NZhGnydbNla/+O0Zn3wFN4BmuyH9w7IRzF9g/3gujA17xKtAQsHDQdufT0ErFNbWpca62eGhd89IYn46dWXec6P1MyTzKxICW49LRpc1U2Tmef+LKdN54Wp877y0bcax0666i9Lvi6TkrRudXi4XPB1Wi+1qyHbW9xnSL8iktwoXOGCpddyZX5MrsjRqCna1eXw/A7R2nmvLhg4m910nxwC9in0VxrFztzD3TlRL3ic2B3KUak81/95n9e/RPpd3Lu5S3TSx//Q/eLKXGKpHQ24+dDxeIjcwycUuy8fHzXgGjTYGfz0Lm5coq/cS18aHhCwazJw5PjFgzofTy9g2k6uzjiKvHT5vuotnQmq0q9Xme1pXBQxpQreU+vYR4dqx0h1BY1X+ymcLfTi6IO/MvZROXAm5qMV5EmO9y1J7Wbubtk5405qoZdVppeOqtq5tLMLjP3qjsTu394uz9eWqxeWGV9PGk6txoLleGpMytmnbf+NV6aLg0UpIie2zvwh/mPS+RwZ9VfuOZ5Re/XHTPLQhwpOzwklyqXtJFeZHwIblVgyQbvI3zM8RzrfMzxhmdXeadp8jX+XGW72a2h8py9VfStpvPcCk3nK194Rt0n+vdfJZNPTudWSyobic5m5F6vywGxm86vLlhsHhg5XGH4pcjQzuYpAJrObRKRHMjKoSdN0YLWJhV6s+vGGxQ788Zc+ZHKHTIfnpzYa7X3BtGZNyXFqMCta9Y3KObNhXVrdG5pDU/PfOblg1NyX7M4dOaRlyJwttupnOIIrr0cB6prJ+Ert/WTOxB1RgSMrmia2E+7KUuF67C5OFkjH2hTpfPQzIVAeW0Qy3uRRnkHczkc/aWjvHT+5+/815f/7o9eWj3/D/8k7WUt1q/8UfXir3/tFddv1uourZnONIzCWCVgNRbnq3URTDk4cOJP9hC9a4Z4UGebnKprXT9N55FpVXe3z5t9gULSWdFN0MtQ96sz6WK9ZeVeP897nS14UCjtxUPvYDpbnRKjf4EinYZompS30oFJDDrPnz8+vjXwg4+q5/Mc7XTm3UWYXGHp3GrxtvIuNUZnonDFeyC5R4DbS1Kjs9UPXaqz5mkXjxQH91Zmz4k3kySISaM700np/N1Xf/2YEyCPvii9VvKeSKz/5Svmxyya6TwwKJopXV0CnFEgSwAAIABJREFUeJvlFpdR7Mk2+oDFVLNf4otsm38DBCU3+egsJxZiOSh29jhEm9QCLoo6kqPBc7Nx7xmezgO0/p5CmZinG7sYBH3FZGeGUj4Gnc3vAteazabZwDW0j/j+iGsysSBiM910XmP454FYeDqLHr7uxmhbn7QWOO+6X7iNpRkLkYXiZE0ZTMSmc4HuZSRe5/Kn86qksug34jzNMBfdXpmTw7LnKmanKFbF1uqLx8aLA/4PtRLFziyOdr7q/sIr3/xnKZ/komY6s+EgxLspzxndLRuejcvzZuOy7x1oAMgoEPBEyU1uOktvujxg8qxOixf53aIzD+IGA79MC0Fnxq8wTzBSnzZPKbWNnZnI7n7ZMelstl7ybj/+KMyHS910Zs8r/ZPs+3Hf6by6yOuLR6xWpsC7qby/juXMFO7aivkhpegIoLi0+HSm3Vc8Mi49YSovt1/VT/GvYZyvmThSqJR4kfHs+b4FTUTnb/6+EzhbjL5w8u8V8thmzXS206UWAulMHWAHyCnEzqy+BcYarBuWHSd2ic4CzuxTZrMfy74Zf+9Cpm3pWefzQq+gPBhUvTcTLUbWu1Cnx7E3FUYBWxPvZv7FuagtbLOazr5u0byFXUr/AhuFwzskiA+XmunM0xexue903gt3rYuu0Mm+Pncl2WYlU4V7ZWEu4LMD80pi09n7jthTLnzV7ngqvkR1dbhmdB509zVgjmffUNlHUoWROdcTZCI6f/vPl53AeXppyzMXXc3jq6vfXJXe0bHy1kvn4O87Als2eMTq/vZBNF+kRme5RcJ6Lyd/M8EKwyZFd+jsuvk3l4+zx8bSlKePIaOzHDV46/Ol49b7Va9/e3djwa/7tZ60j4vOvDJQUYjaJvU5Ve5ka26emXe+dIdjnmopvmZS3Xui9tlwNTqbOGFf0rvvOpIsnkXRFVo1eIhn9+SrmSpcdjmvzo3bHcm9C7z7eVBsJBorhDYuxxNGXi5DT4tPTVlzlPBxXmrFqSWZe+SDtdfI7x+Dh+TXmono3Prn/+ePrB5yJqO/8Fdf/q//zb6K1qo1vMYzy/MeQOulM3++Vta69hu8fOGPIdQ3I1ut58f+waK37M2v4Mwz2XdCJoOnZcOqbzKdrczL3XEi0HnitIg9w/zlnYJdDHKKyrW0PGMNTjJ4RLSvNBanWC8WF6Dbv7LnUe121TfT4qxMJY90YqOAIM+5r3VIfPRRKKgrnvS9lrtbtKkcrQy/ukKxYn946sMlq73tHSxoDxu+11jXFMcZfKdzFKGXePCl7nNCHxbTmq3CZRfBa26Q3kHb7LJgqb0qjz/nqMTKxYEGe9JisYUYbMTbfuwFsZWaz8gHeCk4PiBCftni5IRc8vbZaK01XzPHev7O96TdGZrZGHUeQOuls3ROYpGxWwYisZPHlKSMPYhpQ2eGgErVuc1GoHOQnym3taezcJEhF1NFa2xhr93EwW/1jpt6ZGRDhYUY0ZRjyCOdkxodwvDtHGrmBQ8dE+GMc6y0xIvVp0CA3fq0wW6A9uGS05l+a7Rd3DYU3woWrbu53d/ZDzvf6aRroRf5bbVwsCreW9L76bCKUN1DNF/SHSpcdt61gBF7+aNMUEzjGUuYOcau456Wu5VnzVDFcXvewlOer4sO1+5XIGbWWFIeDyeMIjBywudksbOvOEyDjGY/oHNCZ181Ji/VNhJai6/LhAczT3VuFXxIh+L4iUUxumoEOqtDRc87RmuVhfZkc419CWanBVHDvXf/VuvSPPtWR7xYFnQ+KY+JIaXlf3MtbZQX22HITedmY+Wy6KjUavFGmOFha/iUiarylb2oIX4FWMH57a2WObZqcXxWtLiz9z9SOzvLmCquEfq4vkp3rtt91Rx28mtY9w7OgZ6l5pUV4TyWGv3F8lFNA/57ziSvZq1w5bzRy7w4nNpH7yZZWWglmizsDSzgk/oR8seskYkJ84brbg3jR5FwoIz1U+XiIzM1Zwh/lm2Vj9mZchZ8sXOr9drqSTG+vj2Yhqs92mySFk0cuuhcv2B/P6NcmN5nRlUjn1fuYI+06Qyqqa6ujgYBS5cXaxfFXdgTO1tfJ/NBjtb4nXZg0AqiBkpTLyw31tj4PnY3Eqv+e265LT4kjTRYUkBuxCbeJGf3BhF299+VZ9mgqYre9ZdmR5zXg8sz5ldMcu9sV1p8xIP+QGJaR9QOW6G+uIe5UjFXGARHpk5MlndZ7xHEezP767CJMw3WacH3yltKTFWsKjvvYOekwKqlEzS1xJwszqOPs7N4JpWCLHmjOUK8NOWLgJ3MjpB0NnfrHxx+wiLytUY94P7kyUCC1cwVbvtriUxnrr/9uk+cwv84zr8hsrzYHuHH3N12DArEdEAtziL+Jqbza6uPW98Ejn69/h0xEJ0XzSyC/vLfmB06dNGZyWRpouE/p2IEVFehWcDf+vPWiK9la2R3N53to5qXqlO7rMGtrHH9zUG7t1qX4B20m6Rzs2EHS1aKzcbKojySmflN5PL8iQUxnAg/bfNytep6ZWtnRyxcOs7H4T8sv5cQW71/GTQVdBYNcEG4FAmycpRiUr6heXVl8dRM5cCQpZRdxAODB9k0AWwqCtHWL770Uw4ZqCpWlV1kz/7ro7O9hVzgOJBoTu5mGdcayy9Ml0tTNbs+h34ryO9tFbnDre9E/MNLETT4tkczZLBw219AZDrzt33eqXx4pOzgotVqLU3z0YbdgXZzYWJgR3lyYZUGMYls74Uko7NAM41jBmX7/y+vmGMf6aKziJ0XFk4v2CGwamFhwbfP6dnZ552YWlfszJ5/+aRHMp2vNVYv1OaOTYywoc4K8kOzOefe0onxotXQObh3qsp71VB0tkZhLz4yt8waF5lnyEPFi9YJpzN8yxwb2GSc51Wy7Ap2y7L0Hkze7lsOoLMYiTjUNCjc3T0U49ARTB7YUiofnrXHoHC6VRScl2BkRwsn2yoKq+zOkXwpRTr7zhW6zwZvr/bf2+QkuZj2M4e8LfJyJgu3/VVEpfOS9bGs7yGSRzDDs/ZAFM0V3qlJboy28sNaqM2iYT4W3KOOvoREdPb1d/Z0f3av6qUzvxyz9XZg6MAcfyV0bWXhaLnkiv4atSdKA/3utpvL82a46uqEIOQJXV3FAfJfd78om84i3LBoMzA4MjW/LI/4IVK4usSnvuGtVz46r62w+LboXCBvYZBZzFtj5c5Va0tsag2nJ5A4p/nX/tpKgp28nVjmnYLdqlr7cUoWCsOqJmlXcqKFxB38WdQZGByZmDm16J+ftb4wwaIV14OkmN6p0D9sv7t0TsWL1feBPt1nwzlOLInq7c6n2Or/y/f33HX8+6ks/Mm6DVJp9dxpCg+xP3J0b460ltHCbX8NovhCzivIvgyyemKYT8P8U2TxpteuWTaa2dh47nCE3c7NpxrueyLWkP962y09V5JzOrMGR6f7F8eQ66bHm1Pl5w72fVGhUPDPGWhX4xhNeI35cVN6cXabzq3W6nOVicMzc7Xldi2DzdUzUxU+g5SXznwOQLcT8GYvuRrzngyufhc85vHcpcxZX2u8w1zBNXOVx03cq+L1dH9Ffhg3Q1o+CVahIKvtPti1xvuBCcXsbeZH1faKvNBYOsbm2XJNs8D3sDv/FQZGji01pIaCoBpiFlm7l8BU07CcLd9yUjrzqDh4plf7HmmHcr58tETAkHxKlewWrv+qvZZodHZRRXydxKG6tbLAHm3tijMwMntphfW/k4pr5bg5SGHJnGmMISXgS25vbu11dmclYiB7D8+C/Faw27Ez7/bgyj2PHGU6cGRL0gV9s8seagrFkWnXd/HyN/LU8sKJyTJrPrbHo2F0DjFZiWIMZfe8gmxiF39Myr1HvmDRB8Dus2yWIXfQgtQfo7E0w1FnPpd5+g5Z5f7qwlRlcvLw9Oxp0Qp0amaCNZp7JyFtLD0tZmIkHkpWFo5MTh6dXbCkq11Yrb+6XDs1ZY5+aTa5TMsjzHkczlltiGcLs11o3tOwzndzngMK1ixZYrBNftP1dWP392YxR3RcXOG9yBvNtWbj1UUxnacsspMvaikpnZ3bydZyhRzPtlJmTWFtboTMCcNnnLoY8/Eqs4UbEJlyoEb5Mzy7yqkightXRz3edu9UHHs6IXskpoPz5sxsrA2EfZfPcugJkwmj+z3zWnPlBfaMKDWk0KXjWGU6O9bwS7ranVutZu2Q2eHB/XVNq3WtVrHM8let/GWdp+FVCOoBk/3gHKVUxb79palzotWCVQyxJeZfVqgBwX6LP7pKvXxEZ76BiusFn/zBwlq9eoSz0WTd8xSazULl7ctE5p2+z63W1aWZfeLtHYFmc/hWPsE5kVDg7F/CsRo1gfJCoXi46oqLxT7871p9QZoVkjew8Drsi5H9dqkPtSezUoOS55T+1cR0tj9Z9GTCs2qHcv4sWBb2aOX6sFixp9Kc8cLlJejRJe7q8Jd+15r1N+Ce16xZY+6bkfFUTRr3rXF2kt8v7ZOzvuesx9T4nKvzKZsSxTUiPK/I9tF8wYN1ZTmZGzJD5wszZuNjf9k/tpnZ42dgaOK0pMba0tTWYvlo1TPhKKN2cXxe2tW8yOblxYUT04qQVjFK5+GZuTOLK3J7CKNz0HD4wd/5WUDjdG7Ujlqt5/JskqKclo6VKyeqy3JfjrXl6gsug7Vvfb48IN46ij4PA6Vp+3s4kaD0d3XugLcDdelAZcbs/yftJW4exXE+74G0jS8uHSuJ0QGHzAnZrE8uRyZmqk7vTv9BkoW9t+wvjp9qNyWNdVC9atLc/pZEhKIh6NwSnb7lWjJYmjjhbiqRskYtaqCz6YeX1H54bK56TjwZUDmwbOylq+vhUrmvakP2C1eV81h2q209eO7z5sqzI0OVhbpcBaxzNS/OTewQYYrZ4hEtB6yjiMvv9k7LN4C2yTE6h+qkYffW8C98jW4pizb6fvNyba5KBX2Nukwqfkk+KS17Y6kmvjdoe+lRdwgcPy9EYtYoetLdtXFVROUhDqZ3kVtz11bmj86KGcrp3SNYG4tzL4TiZoQ0PbteWpQ66nu2UavNpj2HCLU5VRufmlYeRSXV8ykStyY/POCO2hS7Bpk3VuE2ls5TVAkSyLWNzV6kqQOjK+X2K//tH77w2y/f85sJfsf/2jv4hjhrNDqLo/AXCkABKAAF0lUAdE5XX6QOBaAAFIinAOgcTzccBQWgABRIVwHQOV19kToUgAJQIJ4CoHM83XAUFIACUCBdBUDndPVF6lAACkCBeAqAzvF0w1FQAApAgXQVAJ3T1RepQwEoAAXiKQA6x9MNR0EBKAAF0lUAdE5XX6QOBaAAFIingF46a/6atnmpOnfWmdQuxhU2L9eqAd+Nry1Xz3gGAolxkliHXFtZurCq/Pa0uVp7KdG3rbHyZB/UWDxhjm1y/CX1h+wX5sxBUT5f9YyXYifRuYW1+jI5eHeMHFxamD48OXlkQS19vXbMVGbuPD3caoxz5uKQ5uUV/xgXPOdXVvwDgre7qPrSwkItwP+t49l0H4shh4Vpd0p5O0vZmQBE3hawfHW5eq6j/q6XznpGomH6NM9WzNFN3KOQBkhHbLp4vNSvmBfS2psNJzZQml5sU9fqy9QQpqp5Ybj9paBBMPgIcmzAQ0/WX12YMEdGDTWSnOdQPatsiNSgKQr54NVtpuXWk5s2qbDBxIsTC4nrTYiLaq9Mm9y6NgdMae0brashj/YlUok4fYw4LOJfNhScM76V+3A2NHO4mR/EkdR46GKb/ZeNkz04dd62aFvg4/SHnBnAOi2f7YgaA05btnwJZZfO5vjIe83Ro8LMlee7LmYQw8KRs0Px4ZvDQFA9qqc8vJVnOWgcQjHUu2s8aPsiRLbJ+YbtvcwFa9gmcjDikEZpyCeesJgOJqi+WbN5FQYrNQoZrgymvSJGardHc11+XjWiocduT/XLs8gnOChOqi+Kj6sfe/oVrxhRBrwlT9oZOrf4cO1UTeGTJIzM8bnfvJdIr7OZULbP8PmV6J1qk+YEKBMLKfhYDDoLEcwcqZ8o6SuJbc0ynVstRoFC8OiCgdcuBmMs7J11x1YC/YeCRvMUSTM6j0yHjKCfqwwVxOyoIgnXX+7Tg/KI2O4dapNsqij/VDKu/WLdNuS7iO8WYk+VJO/lLA/Prgp8O0bvkmv8zOal6szESNGaCd18Fto6MnHMO66sfU2Ni/PTB0qDbF6igcGRQ7NBg+SJuRnlsI5VPG+OiHX30KYiKWJHy1Q5a89IrtqlUHBPc96sL84dsi98YHBXedrTjPbStDTE69AQn5fAN1/BdnNE2fFTq2xacTmI7hCdzZHdLX/0PcjymTfYqMp2KbZbYM+s9KRu9rHsvuuttvbmwJHQ2828E4fO1mShVtk7U2vKuUljOdt0NmdPtQRJMtPEpdny3inPoMZ8Sqo27LMFZxB012d7o3+BmIXBtVPzjHVV1ixqrg3yinlnGigdrbmGdZZ3MJeDY+eJYYuJQwc8YaO06o6dG2etUfT7S+OHJycfKQ1sL3tH3P5SbfGENSELm4BmYpjY57A9iqcz65UXadRQvM5ETfLe/cXJs1SwYt933Q9GYm5iMbOM8oa67LzQEEkVRyqThysjxYHhCUki6ylk/lzNkmZw+KC5qbyd2GfyeScWNOcjYPcY+VoCpphpiQkc7Il+vGXdYjMfykF0x+hsoung0Lh3xG1qYG739Yq1Su3KsmgJnJvcUSgUBsa/5C4jsyXQaUJcOGK62cD4cXGUtPMFVnQBoUmbqhqPzmy2o2J52gMTX0FpM2SLzs1Li2ZhcPWti1yeMePQwmDlbJu2YUeSKA+MwnvYX1Wh6o2d63P7zNNZjbYBeJ0Yf6TihSNvr/A+lTvX7lrirwFcs827dnCtNC8eHzaBwh5g63Nlc9kzhwvHN3+aYZWzWKlS9HRiDXM29MUrVvGtNVdqM+PsscBNVfGcVCgdrrIZFZqXatNs/hd/Y9/ayizfNBx1wHXXNbfM2dmrh6wMWbfq5jlrtl7PdDMC3yx25E2Qe4+rXizwSNOUT1z4tZXq4RJzMhmvcmYYMgIiyg7TmeXHXUHsNfPxiAcZfIZW75QRrseC7dOLbWul+RgXAFz71PYzChkzkUZZZnOZoDObTsV6THHn3HVdxS2DxXb7DG0fn6MH0/dmo+16VDpbg4sr8yfm0B0sBlzh0NFFVbb4vMiuJ0Q+ZV9BHVN4U2vrB1JBuxeD6ezet+2ar9GA55Pfb1hTXTh39J5LlU+PEhHo3Dg3Zb5BlWc75A/7cmtjc/lZc1pEZ+IxPhVZcdI1YRfLhgis/O10YgIz6aUiv2N5G/XWeCLOLMPm/CUa0bwyz+4V0q2Ct+3Iz1VXqpWt5m1LtIKJFwP0c7d94fPu5x4+8VthcGrRPzHFWq1i6u+bjVcq0g7TefGoBaYt1swj3ho9PneZzTofOmwSsfOc1ew3VJnzBsWu2Hl6xHLGKXt2TfkZyBU7e+qCTeeAuGeybAbvBemZ8nhtic0i661psdZdLXtSAUZejErneDRxX6MLvq4cU3RutTjOChNnpPB5rVm/Kq3KyTA6q88i7yuW7UIVBtdftlVPuzN7x13g7I7y2t55j6/siefKtZh2NkzsbAXFvjnCz08N7Zvx9EisL6/IoXLjbKVEzp516bgVK9K44TMG2XTjRUzszAM0uwPJlQUTlOYMasN2zpaeGCodUbZluzVxr7GgeOukwC7bWp8fN6dJcu3aWHF1wDKD99KU+zC+P59MknpRZrWlDm4t++N9fpmBIUiH6cwvx6pN/nifdZUJmAzQpZ6zwt6sEgXt7NISk2rvOq7u2mi3O6voHIlUw7OXyJrIGlZLM+eduhdiqaFrhqB4dFZld2nGnLS8UHp6ibyGpaetCuvh5qXFquj5SNO51VioDE+dcaZ0a7w0bc6fqgpO06Kzxw9c7uRaCWh3bixMsOZIVeZdCckrzWbkl9cRYudWq1W/XA+ac9Z9hyXXXHXYfOU1OFCoVP1xYos3odolyF8DkA3xvKNEYbJmqtE8a80w3D98/KK4N/NuG3Hf1TRWVxsiP+RVtTe6HGPpCauxf2JB5E8uRNWyeHSgz8XTzxCd2QTYgZE+fals+m2rtwbRvCCOYbOPDj4RPHE8GVHZRqcJ2xukn6lOW02LI5+327Ld05OKbIjqoC0WdhIOtxSPzqrstunvTMKXvcBl77vJHYgLuTJfthjniqbt/dKi88QCec/xG8/PmHchir/8Yt1bm5eqs4dGioeqQfXZgtRgqXw8wncQ0ehs6RfQcsWbrQa2uFriWBMW65LhorNdHNSCJ3bmTZz0u9+lKQt3IvH63MTEgt1/S3Qg8fUmoM6qtq2eGle2xbFHe2vOXN8+g9Zjv0xnUQVOursIqU9tbmE3GP8peC+ODNLZbBAqHp6dsd4Q0/cUyWo/vbE+HqxFK4DOzD0q1WDVbBDLu5FGeQdzOeDUrl1fZc0dKty59k1jpet05qER668als6t1tIT1psc8kkwLTpL7hZm0U9ncVMxj5a3sud6++GdKmfeQTrak2QMOlPn5rag1PxhXUBCZk8c6+Yq3oCJ8NjzUOU+b+GwFTy70+VtxIzN9drxkL28xW525xJ3qu415k5yeTnb/SxgloLJo7XG0qnKiN1PbqQyWyM/TOVvVlxt6+wU7n7BfpEZZcR9y8mWziWLlO6nYevJ/dLSUmN1bly+VbP7t9wjkN/R2XOP2UZpNvgOsX7OXkQyncPULPPNx6oIbOVbo6q5w6uH99Te7WKdPQRHq3TiWB1/u03nNXab5O1Q4encYo9IBXdjNFMkLToPlUWtVnSlEN2wDlo92bz1WbwUKlqBpmsrf48U8DTM/Mnxk1AkCtGjjl2Ru1+dwq900Vm8UivYLbM8ZZK/rZa4MfnZzZ+vxXtLXpfC1W9rr1Bci0RnfqMpHT+/OMX7aLjyUzzsa6vmLTNEgMaetOwH/K7QmVdJ10UQWbV8hpWjhEtWSe23oKxFft8c7xB3yEzUDqtbdu9v9rAS2BXE7P3NO3h43gax14ksD42VF6ZKA0Qbd0Q6y/cb+W7kXp6Yd7+pUFSjKOZu05lFB+KD5gh0brXcr9eki2bV6WDYdgirZYI1/0uOJaUnuhWH7MfWajF0epDHv6wZmlk4bj4OuujcWj5m9RtU4pk/3dtfxLWik8hVvzwrUmZWF6YV954g1k/sNVsfwsDO/trF6fgh3l6qDud3Jg+d7e9Hxuf5W8prK4vym33X8lxlu3nNUlOj2ea4eEk0Jl1bmlXdeg+wLp3DE8QOZWub5Da8XAaL5qNdcfxYjfcObMg96uR3XRzng4f8vV74PdvmVxfpPLh3wvIK5gNh6cw/8jbjXPOVQfWgVQSnOMRUiGSXKZ6rXPXQvcIfUzy+bK2yEhHxkK/FTHVqd/qiBzp1AsLm8U9vWnHWu0xnjmNBpUh0Fn05fF/cRXlEcqssVbNWq3nV36Ic19KoLzxinqp4uNZkFVgColluvFYrvlvl4ZXkZUEkst910EjyvySpOkOCLM9YFHPLEnZNhVfbMVeeF32dXZ9o8thZdThBZ9EB2cxZqFoRFPib5OBfPYW9Uvd+kttId03p9sMEEA8NUhMW/3zc6tC9cnqudtWWSnRVknbuIp3FHYLJGI7OzdrkoPmhgvgynsN0cCsPOVmbvfMaY3zOojg7RZjhNViCnida9/2SP2F7ERGWzuzBftcM3clBwGDBuuuE80OpfEMsxqOzrj4brkbnlv0qP1R9c+7GBfGsxK+X0Zl9zEbEO6L9wbXJXahmQrw+u+th3LVDtda5qUHWPErSmTfJFcR9ylV0/KYlwdm1WbnSBknEcSxv/ZUa0dEiKDU/OHyJN1dOmH2lrZByfsWVvpCaall2yGl7xVp94SD7oMVKzrb7TikZgjJvvyaibw+RWjZsOpODSNjNcaxDxzX+vf7wsysNtlgcnxN9UfijofSRtF9kRhk629LFJ1lkJ1XQ2eKjE2cwkaV7VatZr9vdLwNCXascWToMCWTvHe9lsATl0/nbnUX47GTSTCUknVeetRqn2tU7lprdAOXNZoL1eHS21Iz9n12d+FBVzq2YY8jeoe2F8b6l7t5UrAHL/81Lc3X+6Myi7S2uxFlfhWnpOxk+GqriMZ8j3tetnUT/pPWN7/LiOevcNJ0DGjd4d6sR8UjoynjQShsk+Q9lPZnoW4S4XYmK6j9abVlr1J7grbDFgwu+sSj5TVoRfbjZvSa+H+kfrlSsNEN5S7AUrOGIaKA0LymIzr5L5u9RVBH9ynGry6n12C5C6R0zy2utlnNdpalzjRZ/gewK+rpCZ9b2LQqdyWhXWJLOvq5Niu8SaEQytf3dV6Qv4KZfYrKHobN4BHF/bEyf2luY/IGqbRsLSy2Ne2RMOtuPJ+4+Rm2+FeRD4YjqxK9eijIi01mEnAUpxPCKzNfZp8mFgvwNmLyrK5qTN7Dl+nJ10T+ObbhidqemoDPvVuUflIuzy36H5k4taC0YSf4jeYGMPLssHtrkv7wz+8Rp2ehb9ldFmzuFQukJ+uZYO2zd6ukgxdWjbumoFTX3mwiL4i2BUrCGow9NVn1XYxpOW4OitHu8FR8I8dy2udMcqrWuLox7Pw5s1A6zqyuWSlYvQvdDYVfobHm43c7AZBThKouunLCUi+wN25wdXC5H1x1GZ28SrnVxqwhHZ9HeLb/poU/tyl2rxYcqk95benbgq/yqs0Nn++bpyW+bjLqrk+hIJPU5d+/gSdxZbV5ZqYvXOWYPyv5i+WiNv2s4NzVUKk8vsCEQ3BGxeI8kD2nGEzW/QBsYftrzWZxzxhYP8738CFXMUjLmoorOLV6xPZ24OTLdFdWTpGKVF4fwZsVejllRu1xVo92Kpyo2V45bw8AWCgMjJ1TjUrR4zE4+z4rAmvfKWp4ZEl8JhvQW6/oCpQhBhHaXbddhkV2yiarFm/VyNCgDAAAgAElEQVRZTV48UvS3TS89bXchdj8RinY/mQLM/WSLU5h6ltjl2PWdySjozDzZ6ZbMtvp6OPAGZW+GItYd8ajhfE8fks6t1rmp4q6peWmKhjCn9n6k6s2+vR7oWvZesRaixs7se0fVp4o8o0p3udYwgxEWZlC3ppD1zdytf3D4CYvI1xp16SM6prsYwMFXfmKEB+/gxbb9hPw+3VGUI9ILZ96A5bzZkJ6/+FOF3zWVdG7xz8xczwEino3crOE0nYems6Ix51dZozwHlDQ6gbsZh/VtkOnsvLsrTng+jHaktZbCf8ndatTFnTmkt1gnCKxCy/Nk+9XEMGsnty58kOyzMTl5mHdlsUXmuZLe5jnXyore7kbWbIoYw9mlda1a+ZB1Rt/4JCxluXKlT2d2OxE4brGWGbFamzTHJ3OiKyay2CpdE7nIMj/y+ercscnJiZGh7cUp9XD4vKtPsVJ1Xpz6ard5GtLoPX8IOovBUlyV0ZuOtc7GobZvz+Q+MY1R6Rx8mnZ0lo9eayy/MF0uTckvoELWN/4g7Ny0Rbqc+Ly7O1lU/KNh8RlL8/zC/AWzuovR10TnWZGk9Zdf1/gL3kZrVsxBgZVMK5amms68iVN+KcevKEazRgw6u66ZrzRX5lg/i72VitVmamPIuzeLQO2hM+wvhgrKQeykFMSnzB4k2aMgER3OxOfXoqFMSs2/GEhn/+6tVqPGhoUqVg6Nm+XrL0d+FE9ZfHDREk3GBd8jGu+gUShOLSmb0USE2O8RwjxZSDo3L9dmj05OHp6Ro0XqEkPYWOjsjHfhYh+rSqVn7YCGSUHT2RzZ9dTM5GGTw2Ika2+9MTVs1Co7RmbOuyqaGNjWMx6hKzPiYkij2Cj+tqWzGLnY+/giEpD/sjOWjl+SjXqWu0dnKv/h6MzDSckteFp8LHCnEYAsqnrtVNV+McVey7KGf35/9s1Iwsd2KBBt1m2LmbjKADqb7ScDgyOTVTECIX+8cq6ISE9tiowkT1LNy/N8yCFzRM12qbHuRzYrxdhVAxPzq2R7rvMYZZ7WNeqmFR2bI4iyVhH/CKJWRsN5C7umdpmXr3zNHpbaGkCV3XWUdGbhpP3sbyZk9+kuHZ5fZtdSX56zxocOnIqtscjfnZIhgpxFvszcT46m62cmpO4s0miCxNEhTOzanb40VoUSXyewAi84N5IgOvP+DzaQ+wdZj7rhIwvV2vJqnT2ONxePWj3IC4XiI7NLVpisDptY7Q7sUae4xDbVVnzL6h0xkUwtza+9M0lnus3O1oY33vlCZ/HFnTOUHUlnOx1zgXkYT8p+Enfatlr2jDXFrabbF93jsbUpZtepxEoAnc3hhsVu5l9vB355W4jlKEjyJLfWWDoxzsaPH9g3azUYt0mNDyEiajJvpbFrI73girOijb4vYknF+zfP9bTJvL1383J1apfVoNFfnGTjVgfT2e53JG6oVlI23z2XHdD43rBbnH2N0XbuvAteOrMnrf7S5Klq9fS0NVq3rzHOm0bQOktfqo5WhWI3qrVFNv6JeYX8TXsQnVsX5iaPzi6cqS2/WmfTuyjqTnP1zJQ5xpk59n5p6gS7CvI2w2q3R2G26vIr/xUqTm3taEOg33XH9SfCLfxbBHq0L+VR4TZki848Kg4e0sb+8tVVH8y2f/M9t/3ZqHn9rPzUDso9bHjWToo9fW6tiHF2xJNmeb5uF9vW8dlzvO0zqJhVBRBMZ/moRM0arZZ4zahsi5DPZS+bLU5TbFKVQn/RnA6Db3ID7uri8WPOEL0LJypseGjxNSPfmaw6ktFbixrLEWauihI7izu6umWzebk2MzHEsbBrqmoPtOSm88rp6Vln0OG56RErVKXeZ/Jr4SkOlg5MK5sa1hpV1luj4G8PsQuGWGDu58TO7MtbEba4O8MRh7cxcdZPVO33OqzqscYrVt0m5hbY3AWlqdrVFWvQIG+Zqs4SVHeaK3OPOM8ApaeXiQb69l9yq87MMUPUC3tWh0JBeLIqEW7n3dKljmdtDoiyOVt0Fp/MFQpbyxXX1yLiBVSlzCcE8iLXfCYa4BOO2ALwaLp4cH6FeLgWH9e6H1obS4uib4F40rSf3RrS4AmDwxNHZ6esoQjVncxWl2vsyz1pniSJznyAc/+7RGZhAw4UfC/B2Sxz9lXyhcbyWTMwEf9Wl0+xh1y7O5T3AM9688ry/NEy55P5aDnjntPPTWeBfgm1hULJ6rrrSTe1VTWdmysvVWsX7AaVldpR3hGCqJDNxkpttmJ9iW5ey0Bp6oVl16j5bjrz7iWuy273zjNYgatLM2yeF+tTUnEvpI5Z42MQs9izeWl+wup353CEPWUPW5O2rDXmza6AYUvffz4+yseRhaUq8+G5Sat/udUMyLummP2L7KjFHHS7UCiMzzlOKJyRN1y4ThJEZ2vHelUE0f3Fygv+AaTIJ2PCyD76FV0em/VzM9ZTBR+T1slTY2mG9y+iun5eXJg6PDl9YsH61NasaKsXanNHeJRfPBo82KlzkkhLGaOz1Gbn8n/PihPbui62WV+R+2+YYxa/MM5iF08Czmp/cco/woHZqLA6zxoKPfPaWQOP8TJxUmm3JDccS3RmDtruYGK7Ey45Aoi+XJ7dyc4DzlFsqb4wblV089iBoQPTVXsACmdPD52bSyfFLdO8j07PnnFDzTkwrSU1nXlfGo8SBZ8UzfPTLOQ39xwcrpxa5M9EcpbddG5dXpiW44Zjc4uXqcBOTkG93KhZI5Vbso8csx9TFAfQJSy/MRZ7DAzybwvckYciXcp8dZ6/DL3MI00uptXox99v2s+pa/Wq4JRXc7ZOhZZt6Wxm6+rSLP/435wGjLVEi+y6+8tyK5sSRR4Sx51/O3/OJ+bmkY3zM/xLVlWvfN6EZR8vLcgNoSJzWv5mjs4mGC8tLpxQjMVzbK56zhmGP4wEjeX5mcOTlQMl94czQ6UDlcmj6imfWR87D5qd8zUbFxfZO2hPZyz/iYa2D02cloavkuhMzsdgxxsBC/LEzHam/E29g6WJ2XZVnh9+aba8daRygo/aY6cpLXjoLG3p0mIAnfkmqQYppGjUDpfMNger3w59HR460zvFtPKBRwa8vRQUyYlPXezrGhiaeN7uMmEd1FiaFe0zg3un6Y9/FKl7zCsnhktPm/PYNi5WrU4g07OnF60IdmXWijGdmJ0deW1l8fTs9OFKeZd78LbtQ6VjRGgZis5mys2VUxah40LQ+0KyUBjYMWF/Mc+vmvepLY6fEk/OHjlaSzPydW0ZKJizeQVNMO9NIPq6XjrzDrOhhs2NntcOH9E4NzcvBj3QeWpyBDudJ0gpLV64cliS0plCJkvMERzyyEi7sd7QnhEHI6UQuPNKdT7kDZQnw9s3xJN6YOJJN7reUUuJrdUXjs1HmV9AOlYsLj9vPnuFdKfmxWo1hS5rIi/m37Tqu3yOiMt66Rzx5NgdCkABKAAFFAqAzgphYIYCUAAKdFUB0Lmr8uPkUAAKQAGFAqCzQhiYoQAUgAJdVQB07qr8ODkUgAJQQKEA6KwQBmYoAAWgQFcVAJ27Kj9ODgWgABRQKAA6K4SBGQpAASjQVQVA567Kj5NDASgABRQKgM4KYWCGAlAACnRVAdC5q/Lj5FAACkABhQLx6CxmF1Qk2mq13UF5pGvDtZXFM9XqGWn4Tddm9cq1Bp+90LPLWrN+obZsD93r2Rp1lc9HF3KogHapN+uLpxaWVSMbBB7duLSqGnmycdk7bl9gSmzjcu1UdfGiavZIto85Smf1TG3ZmectRMKZ3CXz6tWXz/mng3ekbF5aWn61I8NuOOdsv2SN2xnkQm13aH+O632PeHQmBlF1C9V2B/fuqjU2nFsh7HjedjJsCqvB8XlpaDhzIxuc1z/llX1gtAU2eln07FFn4SPADTuztFF7UbaVk+bspIoJNdh8fYOT5CipVGqmjQ2y7htv0707Gy/NO8y2e58crOVAPT4HmGqqDjFCppiVJhuiM39W5dme9DJgh+jX0ahWzIHRJ+Z1hV/Rs6D3iOuSzv4prIRojDu6kKKTzmJiPcUceuICqL9X5sv9hYJvOkRzV1ax7XF4qaP9Nj7AvDRhkX+fFhvonRq3l9g5uqlxsWYOc37OPeb6lWVr7HM2GHyM/xdX7Gk+7CxlXr3lY9ZUe/IQ4XbmW60Wn0BncOqcbO36si4686jFHjOVL9jTVzoX2qyJ+WW8Q5s6++RsKRN0Vg4FGS92ZnPqiFm33QXijvjMBhhz+hJrOOmJke1D5pjlzgzE7kP9a1rp3GrxodOD5+3y58KMQ05ac38MH19xN4ywaXWGjpmj9Ib+x2OxYDjznVKK1/jg2p45mFt8znJvTQ2/TkdqmVZPTN9nzkJC/ePzAke8AVMptZr15fljEyPb2XSs5jwMg+b4xXziWvIQtVEznQe38jGj+awCPjqLebsHBlSRijqvmd2SDp0jUlU5jHrEdCyVGeMGK2dd3mxy+NXl2pnqtDXX1MCW4qA5y47/38Dg9unFkMWlmc6iSaEQZp52dxbXlmeGS1Nn3JEmj6r81+izDM9eurQowtIZMxIvlCZfcAenF+ot/hrAtB+3Jk0qHZ4XRzk7LxLzqrhzG7y2tnLcutcQEdBL054pFJxVNstX/2BRNQ2YaR+fsyeQlPOQZfWCQg2zrW6+bJZm8YkaPVfDVVctkC/atdxmcpOB0pGq27dcR1MrbenMGj/p+6WUoCcdReggxs6vnG3we23cofqlU3d/URed+dDsfKKQg2zWUM9k5uZg2+TA/BHp3GzUVxbPLMwerZR3+eoba7twTdijeDgya3KpXJmcNGcvtWbki/pmJSmd68vmO0/5cZtPwl1w5Z/0EsVFcfCaLfX8idicwcE7V4XXMj73n0/wmfd85BaGQzVn1kdhI/9Ss2qRl0AbV55lbPa+M6D3tq2sLNrrxg7IvHo8LiEFLhTsVx1X5kZUuzB7GEGk+fSK5en5C6u8Hpiv0Ksz9uyrWydrqlfPdik4Cx6qmhvYcPtiLqGy1V4zOHxQnv/MWn5eftRzp7NWq5ihw8SC3ELVqLE55oqHWAbFTM17Z6JNa+BkPitLuugc7O6OB5FVtx2dJxYuLlZPz05XyiXnsUt432VZysYCm+lStMGtvFRbbTarh6w5ZtikjbWFqR3WbJhiH368OQ3w0MizrnlrVk+Ne0Emk049K6t0lO/+4eSXCh/4K6CC6klWHL06N24ylz3oDWzx8Hd6kTWnFtrGJuLqRezMni1GPu/Ewjw6lmPn5ypm1RqcOG7eXby/RLFzY2HCrH5DMxfEhYb7y2OqsG8UMq9eODovPcFmBKduwMw529NZTEXYX6wseF6ic+kbtSk+++LeWU/Tmbpw3FS19gs7i6ar1cKdDpt0XC5leyJmOW/2RLSKCUjV2c7Wlgh0llDFWqacuaLHT62yiW/549X5GWv23okF6XFr6WnTFobOZmx8zmwLrpSdWdMdwBcKA1uGSgdGrHuv+y56fso8wC48Fln0l+fc73AZwqX4tLl6Rsz+u3ViQXr49U9PJ2cj3HIAHyk6t0T47G43b9brZODCcuibappPy1l8gpjPLdABWbu8W1X/ASxQrVT9WxJa2rwBU6euvMGrDzHb660nhiyqp2rTk+38TqZoBwv3MMHrQqHNyw7uT4XC8MnA+aqcpifecmi3Fw8dXWTdbAUSrDiqUJo5Lwz1ev20GVsV1HRmM2c6TV5Xq5NbrVpYmvLOoGg/EPSXJj0tfoEukamNUeisfvj1Mlf2IXG5rCZ49zS3NpctcBd2jJR3kc3B1tuJw9Ozp832B9H84Ou0x9sr7bCrWTtkzjNNEGqNd+oYPrFcPzdX2cWm7eaNa/XzCzUxyzKv8wflu4zPmQqum5C0mfmfh871pTOLK7w1kKSz2fpcfmRWmh16Ze5AsVDwtqQzXUm+8LrUP7FAEl2UCPGXtXKaLwTdMYt7V28lcW+Nv9buDVhAyixLQ9YspQG7eTZlVz2qBpmZl+zLT1vxiR2LeK4tFJ15RSioOoQ4abKumYVC8OtHdlIybHExt9VqUc7PDnftKfvh8sx2J/hqLIlZtP1oZtlursyJ+bwHdk1VRaV2rinzSxHo3LrWEOhh3HGo5J0imvnQ4JQcuXnpfHnBbKnYagLU+29gcGhkYvLo7AJ7grZb2Vxqeum8+pzVBLdrco7N510ZMeNoVUxQm2RIZqce3OsUXu2waWMNC5zOLneRMsF9UdUdm/I/Pu86Qza1g5S8vcgfYN3RNNtK8+Wc+Sg6fHK24lWWXHfuH6yPh3Xtcq2wM8IWVo7vMl8bHtc+Cyd7bm3Tz9qTGbYqGjaep5/NyWNUsXMjC+pJFHZl3rbzlitF4NwS/VuCWzbYSxqzHbf9y0PeOaQwOHXelSPXihMeL81YTuKExiKqEvsz53ffW4LpzK69PF9fayydENz9UHnmtLdtzWltW5ibmSiJmp6Cx4qLSelvFDo7WfCS0dnClpiObs/w0XnWeQ/Fuk/sm65dWLVjYzMl2xe9J6A2Ufdt5yHISqHZWF0+M1sZsfsMmbQa/pLc1szuzxxY+unMAMTvW2Hp3OJVkWiMZrPBT5wW903zr1kPGktLK2uL03IrOWuyd/VqYDoMz7LGHNbHg8PRS2cuBYl3n9HXVuAvP8ISFAw61V6+Unt5cdqMqgYmz9iWgAXnA7bsqqfyfGGfP398fKsy9jDFrVq3Zncd9IjOO7aHvNGKBupwH3N5/cdzahE7uyObQDqz3I6cqrdaq7N7TZ8rVibavBS1vtJqnJ8d31ooHKy2vwX5ctldQ/fo3FpdFC0VSggKX6z5RWKb5K8hzP5eiytWrVw9bXX42jtrNpKZ9rmZSrnEX+JZLBkYKh+dm2XvegsDpaO1BuspzKIJEaUqM8byEz12ZjgQsUpoOrdaLKotiIzZelBvWtweb+/KniXl6sraMcRTLf/A8gjrT+itXfZbB97hNLAryPRLzllDL/HaT7dOULde300hpMF5VsiueirPl+1rzWazuXJqfGgf8bKOu25gVMyag5weIG2Kir2T8LQLq47x+o9vPyrCC6Qz79FcnFpaa7UatdlTK80W6/Vkx87TFqxHpqU31fwd9VqjEbWVz5fjzhvSoTNTmcFRXBNzF6rdmb+ccb8NsA6TfVGkw/+yTTJr7B3WlsyXg/a3c6LDjVl3B0vlw7PVC3VxF5UekQYGh3aVhqynIDvi1k1nDiDxaiUCnVu875S39ZnxZegA65bEeimFpDP/yFt0DGdNkPYnZ8raxc4YWOvtkoi0wJ5axJ3Lc2iadM6ieirP99iFb4vOZI5qbVzX2lHcnFQO46RmLTGXKEiv0z07yKtK/+E7sQvpn3QFXoF0brVarImPvn+b6VLElzOVt+VU6MxbAd3NtZrpzJoIKDqzIpTHnaifnZ09vagaSKZ5uTZ7aFh8nDJQOuq8/m3j4hwZKuf2wZf31rTfW/p2CPIe0ZdDhLpsX6uC2cFgsHdaW23FLs5aw3NYjxdOI5LdD4d4526ekV+Cu7kwKNvht7HMF2K0irAHi8HIHVRa2VWPU9j3xQD/kkByOdF2bIcUTPE2rmvt1E06E98liLZyFzfclGfdVJSvu4P9P7wrZmVPDXTmfhDysZLvZgPFFELpSZ5IQRaNNav5Qjj++CN3fpSPClxuXnU1ejsZ09Vnw9XobN/qXVIEZZB3hbbDW3PfIL4w9Rxfd9PZRG2zbn9LxqVWlyJLh11CGnDmgU/0Vzf8hsGxznp2el9BKWTNrnptikOic6u1wjpT2Q+L1sUq65QkBXsB3omWjViPPtZ92k1n0cQ3cqpOvYnw9laQXj6E9AhJnQws6qCz95MNp1ec7ysJ+6MJ1zcaSk+S6Nxs1J2eIdeWj1uvBbzPOFfnzW8Z+hnvrOJ7dXnp0jL7cEP6QsTOhmLhKP+WO9aNxwM4B778rZcHl6E/GGm1RK8mB47sKcU+hTt2IOm8a2ZJ8llzkfZbb61gvsoFGRhUi+kq2SgezjJvX0vYQ///9s7vw5GljeN/VDPkKrw0yxl7EZawhHMRlnAIS7MXbTixrDms3ot3HSaWV4aViyUcwtBXWZZwyMXKsOawhKFZQuj7V9VTVV3VXd3pTjp7MpPv3Eynf1R3far621VPPfWU8Ng980I2ckCPXbIBfsT0RM1P3KJEoYmZBIY6q1EyR5u+nPtOaVzFpGdHDgtrhyybwt3ISb90llNVQcjSTPygxRuXjMvnD2Dw0YtMPSSh96bTV6kXrfhnipj9oY9tbw3qnM6SLEU25atc/J3cmqSps6xJehmcB/qcz3j5ns+BcRoN6UPDTm5/CDXvEP3y/G0poFvEaMtcQekRIWYzZu2qlfVIejWpjFPdVWptto6p8yjzIq1ymVwnJ+glmXkr+EEBJJOGtkO+kHpipbaJhmNaIrddKV3Xm8ZgZkl1PmJ6Ws03EBTs545PygCd+07pyamJqSU86mQIKqPrpidmbtvrjzxHvAus2mxxpcikQwTaw8nHzBTwCxp3yZiDLnz/oqYg7DIDP+d/Heq8jpbfEj9TGvp32u02a8b2p/qM+Jw85dYkvS5Sn1rKQONp93LKb/r9ToaFFOZuNvjHIlp1+qxUfKNYyB6SRFbLlL35hLkPRqdVsjuLN0EpaXnLxupOxRXi8zUaz7zx3zSuScPoql1gqjN/PM3/iR81POp4Q0Z2FFJZ55+00lKr5s7uZFPitw59ri+V7M7ym92R00GpQEuq8xHT02u+XjB5+ylOodsbytAS5I+hlb6eitqWs1HUaIQ6kt6Q/nTFs1GSq8w3a7Ne3aqh+DgmZ6Fmu81iKqimRnKxtmWmowZI7A9MH3j1OmjJPMzNfdS5M7jyu894C1HZf+WUz/5fEY3VWKbqZUjlimB+XUzSYILbaPZGd3xFlsT6kZyRbNGNNL+RTNkn5/ItmoBj7/vLQQz7ZBk2B5LP3hHetWKOslGrqDJtVUB2WuNpd8Q7CtFKq+XUTVFpbvjHR/4k5dIGi/jt5NFURjM/icy597/J8I3vvWid/9Id5k4/UXFn3uuu45k0i3cIJ1atdIrP5z7v1GBMxgPpsfPUeTWfTBeK3zHTy6v5efv5KMJauiLJAQl74AQdq+yN5a3eIM6Vr/X2BGXisv68DfodbupUzq8yBuH5u4VoyektFnm9/E/pJKMRIkiWEJzVuNvU4ucZ6ryaeP0PS5nOg/xfTZ3X98vZdeC9IMcz2Y51Gs2XFEBFvqUkAXI6k3ezxdVwH3UW15reezlFIRrXWt+Zyl7Xx/VysVybUZJzUtuqzsZ15BnSNcIUlFNninNvnTJA/QkV74JeXam/NOajDgrLhjxqPFzMlqHiQa697rPzc90xXBUyWSdvh52n3ticFCtGpTSjp5l42V/C/VZ74qIrVWvd9cOkf1aszubRY6aXp8J5+zOkyB+jxKdOvrOO268jChJN+LrsKycoUYGarYBmDova0vRYqZHza+7KPsp+3Wq3WRtMOlaJaVnrG4/HauAe0IyAps6iq9roPGSBrqDOcoRX4G78h3yHZbxBNXashSe2jiZnKlK+z8Y/ox6b7VYUcFk8VWKs4MmzZitbk3D0zvde9EVU32jcY8+uh/jJqjOfptzollr8ZotlI5vR1J5y6ixcprxp5pshugJK8enVFR8qmm/tsAks4kJ+O7s6i5lliRSLN6HZ/3M6/byUQ4er8Qsy6ScBf0sWcSrn1p/i42kGALCeGW9Wk5cUISs1ldnU3/TFZMoQc5GPml6eCuftT+eUnHnKNXXVd85xjAii6+iuYgRRaWiS9ajpdvrB6PNS9WiFS5XjqC6d3OPmtOHEGxq85QGSHMc5a7bJ51UMOeixGjR1juNoKgKL9j4+1BZ0BXXmL0+j2ekH1xbf4dWkT6+L7micjCaftQuCrYoZpfbhqUy9M3aI7nD344pFj2UhRs+T4WBRScSQtIhWYYxCZNWZF3DKSd64o/ajHnVW7s9aytqm0CzLii308Nrl9OoSRi3yrxwpKlLn1U3A41yzyZbckJMlw5+JQhzQzPsnveAdFXreq6Vlo8ymGE8ujOTAuvBKmrMtI3rsPMsGvb3UVTpuekKFS/psZOFKDiXDCG6i8I2KRyG1NfnfOO+PStmseEui2er6V9PFd83Owh8wmgdsLMpxZIWkx1YrTlkb77Ie3hp2wjiObXHADXVm54jAba433dJ9zxI8hj0V1DlmM0etzxzN33WoTWVy5yerAKxOo/NuLiZMp5Ihmau4Nimz7H6lZTSYQolJ0vzrSmH1g+uk3Sc/0akhCFn2Kkg0mRFK2UmqWTZSOeY/xch14UqvMsRjqnOg1gzU5nYLHednkkXv/I+xiEjQGy3XReqcebwMGf2M+/BSBPZj0S2qh8LT09K3xYwb6YChH5Lb9+GAPHPs3WGhSmocRF7G/9+SUw8fNaKe79HSE+qcCKS5tW3gSy6LU2mINb6nlauUR+wOK1et14mVyWC/mngufdSz48ab5VgGNXK9sbkIS049pA6l8J1VN0qrcxxHs9dUXWpqQKhb/ZSNKupsfaBoPlRke2N7cG4Va9VxnCfdy78yht3VuEcl12yTo4VcQCHrNJPsSczfwsy9YH1w2wheNPWpZpjtem7VYn7TiZMQfZDLzjrbt+0sup+O02j1k3zpee8LEUz13+M4FqrduZrNKKrAp4DKgQmTMOfxT5Gc7OsQ4V8uZyl/Z7vPc85bkdQBPgme0mx0gi81tU1INO1L32phuB03r7sqLF1uf/zVzOc/s/ddHhCR1ZajpyfUWU3dlI75Iqajps5aeBnW7dmso39m8pUsGm5LSvLQW5vV9EJ+UfOifSb9IfY2eNcqgK6tHsoqLSMiyAzcUltNg8OOCMN6683c3raUVx/h/73UmS2aIF2L3YupvV1Mmd6wb6f6/qexxvHyo9R4dVLJjeLlD+7nQ5ipntsAAAdfSURBVLn0jqVdr5Z3Mu6VlcKcgttbnWNZz4z7p3/wPkfqEeaXFB81/KG5jjqOwxsmotOn5nxHCYR02vTb0tS0vRWpZ4jj9bepr967i6pLz2WSYzvsUbnX36YD1VpvdAqsZLFYYs6eURbX7CaKj5+eUOeU0NhCM2rTC1J5di/Cf12P1osRiw/H/xq/DgvNI0kXnFk/xMPb6iG3wzTp07Ma98R8Ftnkz3Z8N8vpX4V3ttbEI9i5lzoLcTlzeyxe1Pa/1ZSpuVUl2cXaoqJJhFYt3FR25+yrramsP4iQPyN6hn483iwnrzrJzLdn0o3aOCnnx/7qzORotQhHAXfN1lvNfJsvOKA8wIynYC0CMimsvtDlwShcsA/kOvRpJNuMw8vucx34F2zp8SS/fLv/KXFXlzexvRXymPF/E4XUecz2WI3zSv+wLl4lNdf9TXn05ibI3GPe+H5fK1ZaQPLNMBSe40dPr7w6x9JnWdfmZqt/lWNFzMV2mANiyFELA1l4H9YVfyIaGfzE/Hooxrpl5DzxBWgFX8pIUeFDHM3B/dQ5juPbmVpJpFSm1uuy/mqlktt+UvR5NKqr352622LMNdSY75I65YA/My4cyb2i+fDDnu0mWsbXukhvch+1FYXTJHaU2rvrhhgkMF30VpNgWGM5Pl56u1I/2HXRPKxUcMb41vZ6qK2Zl0TuPlhmfmrCe6vzT31a3OxUCCw/XfoX/uB68XgaQqdSdMhnbQSgzrWhREIgAAIgUCMBqHONMJEUCIAACNRGAOpcG0okBAIgAAI1EoA61wgTSYEACIBAbQSgzrWhREIgAAIgUCMBqHONMJEUCIAACNRGAOpcG0okBAIgAAI1EoA61wgTSYEACIBAbQSgzrWhREIgAAIgUCOBPdT5x3JRHOaCIrLeY7ZXjeWFpEAABE6FwB7qTDGA3EtakMYCjE7IWYzDcj52gQAIgAAISAK7qzMt6uoULGhSRp3Xdzw8cbisKT6wzBf+gwAIgMDDJrCzOovAfUWLL5RRZ7W6TF3xJx92ceDpQQAEQEAQ2FWdPw9YDOEzLyyIxFhOndUyH4ULOKHAQAAEQOC0COyozsKscdZ0M6HckyW0y6pzHH8fd9kaSO33t6dFH7kFARAAgTwCO6mzXFNSX41B25bL7ZRXZ7WC1HEshJYHC/tBAARA4KcR2EWdab1n52lm/dAvAV9kbhd1joXip9bM/mkccCMQAAEQOC4CO6izWMesc51ZjC70WQv6l2BBeVRt5ygqWhBWAglfsaubv8/kDvwHARAAgdMlUFmd1zceHw/sT3+kqd19aDN9VdYJUudnnvfccVqD8D59fvo3nd8c5DpQpy/AbxAAARB4tASqqjMtkeucvxXtYx0MNX6TQ0JtWy2XG6XPWoOw0KtZrP1+Hvytp4ptEAABEDhFAtXUOZr0mdCedcffs7AyHtCJZWMePOcC7TQ67+b5Cr18/4yd1p9g8ncWL/aAAAicFoEq6ryZD3grmFrH0U0Q6G3hv4NzklZl8VDqHMfxZjV5SU1ox+2NljnyO/VYEq0/l6dVCMgtCIAACGQIVFDnxVsuv00v/BHH34Zt5qHstF6HNOInjiqjcxzHujqzG0ez19ynw3GcJ97E0vqOyTZSNDs8kwHsAAEQAIFHSaC8OguLc/cjuWpE86ueaAy3BuEq5HMHTaNEWp3jOF4vr+kq1w8t7ee7Kz6uWBC741EWAjIFAiAAAhkC5dU5jr8M3OfDOy2J9deRUGjejnbOTEcOizqzi1cTr3dlt11AnTW62AQBEDhpAlXUOY6irFdcNA9+bTAbh5Nx5MhR5wLe4QVPCG3nAkY4BAIgcBoEKqmzHYmwOJ/1JylvjB3UmU9ISXzy7DfEXhAAARB4/AT2Ved16JP1uf1Bt3lwcJXVOWXafvz0kUMQAAEQyCOwnzpHoUfabI3OXFWdMRslr5SwHwRA4PQI7KHOUeg/4Wbis/bwm41cVXX+UiJmtO0+2AcCIAACj4/AruoczQbCd9n1blL2ZkmpojpvXwpLJoz/IAACIPDoCeyizokjnZMvzZbZKIUwNzPecm4OPheehoMgAAIgcBoEqqozn04ivJtdf5rTaiZ2VdrOImY0FvA+jWqHXIIACGwlUEmdl8PnwrWZBcv4apnsZ9yvvDr/CHlYUvsEQiNN/AABEACB0yBQSZ3j1ceu4zjub7lhjAxopdV5/pp5friv9KBKRkr4AQIgAAKnRqCaOsdxdHdbaM3Q+S3G/oXv/zfMrKGinxRHN9wrz/WgzQYX/AABEDhtAlXVuW5a68Xod9+/uJxgNe660SI9EACBB03g31bnBw0PDw8CIAACByMAdT4YWiQMAiAAAnsQgDrvAQ+XggAIgMDBCECdD4YWCYMACIDAHgSgznvAw6UgAAIgcDACUOeDoUXCIAACILAHAajzHvBwKQiAAAgcjADU+WBokTAIgAAI7EEA6rwHPFwKAiAAAgcjAHU+GFokDAIgAAJ7EIA67wEPl4IACIDAwQhk1fn/Zn7dH3ALftwAAAAASUVORK5CYII=;" parent="1" vertex="1">
          <mxGeometry x="2100" y="-713" width="269" height="382.44" as="geometry" />
        </mxCell>
        <mxCell id="Wj-g3I31IdHp6Aw3SEN2-40" value="7种方块，从左向右，从上倒下依次命名为：I,O,_Z,Z,J,L,T" style="html=1;whiteSpace=wrap;" parent="1" vertex="1">
          <mxGeometry x="2120" y="-800" width="190" height="64" as="geometry" />
        </mxCell>
        <mxCell id="Wj-g3I31IdHp6Aw3SEN2-51" style="edgeStyle=orthogonalEdgeStyle;rounded=0;orthogonalLoop=1;jettySize=auto;html=1;exitX=0.5;exitY=0;exitDx=0;exitDy=0;endArrow=none;endFill=0;startArrow=diamond;startFill=0;" parent="1" source="Wj-g3I31IdHp6Aw3SEN2-41" edge="1">
          <mxGeometry relative="1" as="geometry">
            <mxPoint x="1460" y="-620" as="targetPoint" />
          </mxGeometry>
        </mxCell>
        <mxCell id="Wj-g3I31IdHp6Aw3SEN2-41" value="7种方块" style="swimlane;fontStyle=1;align=center;verticalAlign=top;childLayout=stackLayout;horizontal=1;startSize=26;horizontalStack=0;resizeParent=1;resizeParentMax=0;resizeLast=0;collapsible=1;marginBottom=0;whiteSpace=wrap;html=1;" parent="1" vertex="1">
          <mxGeometry x="1640" y="-506" width="160" height="140" as="geometry" />
        </mxCell>
        <mxCell id="Wj-g3I31IdHp6Aw3SEN2-42" value="中心方块位置&lt;div&gt;旋转编号&lt;/div&gt;&lt;div&gt;方块类型&lt;/div&gt;" style="text;strokeColor=none;fillColor=none;align=left;verticalAlign=top;spacingLeft=4;spacingRight=4;overflow=hidden;rotatable=0;points=[[0,0.5],[1,0.5]];portConstraint=eastwest;whiteSpace=wrap;html=1;" parent="Wj-g3I31IdHp6Aw3SEN2-41" vertex="1">
          <mxGeometry y="26" width="160" height="54" as="geometry" />
        </mxCell>
        <mxCell id="Wj-g3I31IdHp6Aw3SEN2-43" value="" style="line;strokeWidth=1;fillColor=none;align=left;verticalAlign=middle;spacingTop=-1;spacingLeft=3;spacingRight=3;rotatable=0;labelPosition=right;points=[];portConstraint=eastwest;strokeColor=inherit;" parent="Wj-g3I31IdHp6Aw3SEN2-41" vertex="1">
          <mxGeometry y="80" width="160" height="8" as="geometry" />
        </mxCell>
        <mxCell id="Wj-g3I31IdHp6Aw3SEN2-44" value="绘制方块&lt;div&gt;&lt;br&gt;&lt;/div&gt;" style="text;strokeColor=none;fillColor=none;align=left;verticalAlign=top;spacingLeft=4;spacingRight=4;overflow=hidden;rotatable=0;points=[[0,0.5],[1,0.5]];portConstraint=eastwest;whiteSpace=wrap;html=1;" parent="Wj-g3I31IdHp6Aw3SEN2-41" vertex="1">
          <mxGeometry y="88" width="160" height="52" as="geometry" />
        </mxCell>
        <mxCell id="Wj-g3I31IdHp6Aw3SEN2-45" value="7种方块信息（结构体）" style="swimlane;fontStyle=1;align=center;verticalAlign=top;childLayout=stackLayout;horizontal=1;startSize=26;horizontalStack=0;resizeParent=1;resizeParentMax=0;resizeLast=0;collapsible=1;marginBottom=0;whiteSpace=wrap;html=1;" parent="1" vertex="1">
          <mxGeometry x="1850" y="-544" width="160" height="100" as="geometry" />
        </mxCell>
        <mxCell id="Wj-g3I31IdHp6Aw3SEN2-46" value="7种方块信息" style="text;strokeColor=none;fillColor=none;align=left;verticalAlign=top;spacingLeft=4;spacingRight=4;overflow=hidden;rotatable=0;points=[[0,0.5],[1,0.5]];portConstraint=eastwest;whiteSpace=wrap;html=1;" parent="Wj-g3I31IdHp6Aw3SEN2-45" vertex="1">
          <mxGeometry y="26" width="160" height="26" as="geometry" />
        </mxCell>
        <mxCell id="Wj-g3I31IdHp6Aw3SEN2-47" value="" style="line;strokeWidth=1;fillColor=none;align=left;verticalAlign=middle;spacingTop=-1;spacingLeft=3;spacingRight=3;rotatable=0;labelPosition=right;points=[];portConstraint=eastwest;strokeColor=inherit;" parent="Wj-g3I31IdHp6Aw3SEN2-45" vertex="1">
          <mxGeometry y="52" width="160" height="8" as="geometry" />
        </mxCell>
        <mxCell id="Wj-g3I31IdHp6Aw3SEN2-48" value="根据方块类型，旋转，位置，提供坐标" style="text;strokeColor=none;fillColor=none;align=left;verticalAlign=top;spacingLeft=4;spacingRight=4;overflow=hidden;rotatable=0;points=[[0,0.5],[1,0.5]];portConstraint=eastwest;whiteSpace=wrap;html=1;" parent="Wj-g3I31IdHp6Aw3SEN2-45" vertex="1">
          <mxGeometry y="60" width="160" height="40" as="geometry" />
        </mxCell>
        <mxCell id="Wj-g3I31IdHp6Aw3SEN2-49" style="edgeStyle=orthogonalEdgeStyle;rounded=0;orthogonalLoop=1;jettySize=auto;html=1;exitX=1;exitY=0.5;exitDx=0;exitDy=0;entryX=0;entryY=0.5;entryDx=0;entryDy=0;endArrow=none;endFill=0;" parent="1" source="Wj-g3I31IdHp6Aw3SEN2-42" target="Wj-g3I31IdHp6Aw3SEN2-46" edge="1">
          <mxGeometry relative="1" as="geometry" />
        </mxCell>
        <mxCell id="Wj-g3I31IdHp6Aw3SEN2-50" style="edgeStyle=orthogonalEdgeStyle;rounded=0;orthogonalLoop=1;jettySize=auto;html=1;exitX=1;exitY=0.5;exitDx=0;exitDy=0;entryX=0;entryY=0.5;entryDx=0;entryDy=0;endArrow=none;endFill=0;" parent="1" source="Wj-g3I31IdHp6Aw3SEN2-44" target="Wj-g3I31IdHp6Aw3SEN2-30" edge="1">
          <mxGeometry relative="1" as="geometry" />
        </mxCell>
        <mxCell id="Wj-g3I31IdHp6Aw3SEN2-52" style="edgeStyle=orthogonalEdgeStyle;rounded=0;orthogonalLoop=1;jettySize=auto;html=1;exitX=1;exitY=0.5;exitDx=0;exitDy=0;entryX=0;entryY=0.5;entryDx=0;entryDy=0;endArrow=none;endFill=0;" parent="1" source="Wj-g3I31IdHp6Aw3SEN2-28" target="Wj-g3I31IdHp6Aw3SEN2-32" edge="1">
          <mxGeometry relative="1" as="geometry">
            <Array as="points">
              <mxPoint x="1540" y="-300" />
              <mxPoint x="1695" y="-300" />
              <mxPoint x="1695" y="-299" />
            </Array>
          </mxGeometry>
        </mxCell>
        <mxCell id="Wj-g3I31IdHp6Aw3SEN2-53" style="edgeStyle=orthogonalEdgeStyle;rounded=0;orthogonalLoop=1;jettySize=auto;html=1;exitX=1;exitY=0.5;exitDx=0;exitDy=0;entryX=0;entryY=0.5;entryDx=0;entryDy=0;endArrow=none;endFill=0;" parent="1" source="Wj-g3I31IdHp6Aw3SEN2-24" target="Wj-g3I31IdHp6Aw3SEN2-32" edge="1">
          <mxGeometry relative="1" as="geometry">
            <Array as="points">
              <mxPoint x="1230" y="-260" />
              <mxPoint x="1850" y="-260" />
            </Array>
          </mxGeometry>
        </mxCell>
        <mxCell id="Wj-g3I31IdHp6Aw3SEN2-69" value="游戏界面类图" style="shape=umlFrame;whiteSpace=wrap;html=1;pointerEvents=0;width=140;height=30;" parent="1" vertex="1">
          <mxGeometry x="1000" y="-900" width="1030" height="860" as="geometry" />
        </mxCell>
      </root>
    </mxGraphModel>
  </diagram>
</mxfile>
